<?xml version="1.0" encoding="utf-8" standalone="no"?>
<!DOCTYPE svg PUBLIC "-//W3C//DTD SVG 1.1//EN"
  "http://www.w3.org/Graphics/SVG/1.1/DTD/svg11.dtd">
<svg xmlns:xlink="http://www.w3.org/1999/xlink" width="511.2pt" height="169.2pt" viewBox="0 0 511.2 169.2" xmlns="http://www.w3.org/2000/svg" version="1.1">
 <title>VERA synthetic shift-certificate theory match</title>
 <metadata>
  <rdf:RDF xmlns:dc="http://purl.org/dc/elements/1.1/" xmlns:cc="http://creativecommons.org/ns#" xmlns:rdf="http://www.w3.org/1999/02/22-rdf-syntax-ns#">
   <cc:Work>
    <dc:type rdf:resource="http://purl.org/dc/dcmitype/StillImage"/>
    <dc:title>VERA synthetic shift-certificate theory match</dc:title>
    <dc:date>2026-07-13T21:49:22.290844</dc:date>
    <dc:description>Preregistered receipt 7e356410b53d99466b633338504fb6af50123e49cfd0a25682390d60dc0314b5</dc:description>
    <dc:format>image/svg+xml</dc:format>
    <dc:creator>
     <cc:Agent>
      <dc:title>Matplotlib v3.9.4, https://matplotlib.org/</dc:title>
     </cc:Agent>
    </dc:creator>
    <dc:subject>
     <rdf:Bag>
      <rdf:li>VERA, concept erasure, distribution shift, certification</rdf:li>
     </rdf:Bag>
    </dc:subject>
   </cc:Work>
  </rdf:RDF>
 </metadata>
 <defs>
  <style type="text/css">*{stroke-linejoin: round; stroke-linecap: butt}</style>
 </defs>
 <g id="figure_1">
  <g id="patch_1">
   <path d="M 0 169.2
L 511.2 169.2
L 511.2 0
L 0 0
z
" style="fill: #ffffff"/>
  </g>
  <g id="axes_1">
   <g id="patch_2">
    <path d="M 32.874928 140.682573
L 159.228172 140.682573
L 159.228172 15.838834
L 32.874928 15.838834
z
" style="fill: #ffffff"/>
   </g>
   <g id="PolyCollection_1">
    <defs>
     <path id="m0301ec5eeb" d="M 38.618257 -149.827853
L 38.618257 -149.827853
L 60.201898 -149.827853
L 81.785539 -149.827853
L 103.36918 -148.29675
L 131.901202 -32.050741
L 153.484843 -32.050741
L 153.484843 -32.050741
L 153.484843 -32.050741
L 131.901202 -32.050741
L 103.36918 -149.827853
L 81.785539 -149.827853
L 60.201898 -149.827853
L 38.618257 -149.827853
z
"/>
    </defs>
    <g clip-path="url(#pff8899fef0)">
     <use xlink:href="#m0301ec5eeb" x="0" y="169.2" style="fill: #0072b2; fill-opacity: 0.13"/>
    </g>
   </g>
   <g id="PolyCollection_2">
    <defs>
     <path id="mcad271c85f" d="M 38.618257 -149.827853
L 38.618257 -149.827853
L 60.201898 -149.827853
L 81.785539 -149.827853
L 103.36918 -115.319159
L 131.901202 -32.050741
L 153.484843 -32.050741
L 153.484843 -32.050741
L 153.484843 -32.050741
L 131.901202 -32.050741
L 103.36918 -124.976882
L 81.785539 -149.827853
L 60.201898 -149.827853
L 38.618257 -149.827853
z
"/>
    </defs>
    <g clip-path="url(#pff8899fef0)">
     <use xlink:href="#mcad271c85f" x="0" y="169.2" style="fill: #d55e00; fill-opacity: 0.13"/>
    </g>
   </g>
   <g id="PolyCollection_3">
    <defs>
     <path id="me67eb834d2" d="M 38.618257 -149.827853
L 38.618257 -149.827853
L 60.201898 -149.827853
L 81.785539 -149.827853
L 103.36918 -68.561646
L 131.901202 -32.050741
L 153.484843 -32.050741
L 153.484843 -32.050741
L 153.484843 -32.050741
L 131.901202 -32.050741
L 103.36918 -79.279363
L 81.785539 -149.827853
L 60.201898 -149.827853
L 38.618257 -149.827853
z
"/>
    </defs>
    <g clip-path="url(#pff8899fef0)">
     <use xlink:href="#me67eb834d2" x="0" y="169.2" style="fill: #009e73; fill-opacity: 0.13"/>
    </g>
   </g>
   <g id="matplotlib.axis_1">
    <g id="xtick_1">
     <g id="line2d_1">
      <defs>
       <path id="m7daf63e752" d="M 0 0
L 0 3.5
" style="stroke: #000000; stroke-width: 0.8"/>
      </defs>
      <g>
       <use xlink:href="#m7daf63e752" x="81.785539" y="140.682573" style="stroke: #000000; stroke-width: 0.8"/>
      </g>
     </g>
     <g id="text_1">
      <!-- $\mathdefault{10^{3}}$ -->
      <g transform="translate(75.625539 153.001479) scale(0.07 -0.07)">
       <defs>
        <path id="DejaVuSans-31" d="M 794 531
L 1825 531
L 1825 4091
L 703 3866
L 703 4441
L 1819 4666
L 2450 4666
L 2450 531
L 3481 531
L 3481 0
L 794 0
L 794 531
z
" transform="scale(0.015625)"/>
        <path id="DejaVuSans-30" d="M 2034 4250
Q 1547 4250 1301 3770
Q 1056 3291 1056 2328
Q 1056 1369 1301 889
Q 1547 409 2034 409
Q 2525 409 2770 889
Q 3016 1369 3016 2328
Q 3016 3291 2770 3770
Q 2525 4250 2034 4250
z
M 2034 4750
Q 2819 4750 3233 4129
Q 3647 3509 3647 2328
Q 3647 1150 3233 529
Q 2819 -91 2034 -91
Q 1250 -91 836 529
Q 422 1150 422 2328
Q 422 3509 836 4129
Q 1250 4750 2034 4750
z
" transform="scale(0.015625)"/>
        <path id="DejaVuSans-33" d="M 2597 2516
Q 3050 2419 3304 2112
Q 3559 1806 3559 1356
Q 3559 666 3084 287
Q 2609 -91 1734 -91
Q 1441 -91 1130 -33
Q 819 25 488 141
L 488 750
Q 750 597 1062 519
Q 1375 441 1716 441
Q 2309 441 2620 675
Q 2931 909 2931 1356
Q 2931 1769 2642 2001
Q 2353 2234 1838 2234
L 1294 2234
L 1294 2753
L 1863 2753
Q 2328 2753 2575 2939
Q 2822 3125 2822 3475
Q 2822 3834 2567 4026
Q 2313 4219 1838 4219
Q 1578 4219 1281 4162
Q 984 4106 628 3988
L 628 4550
Q 988 4650 1302 4700
Q 1616 4750 1894 4750
Q 2613 4750 3031 4423
Q 3450 4097 3450 3541
Q 3450 3153 3228 2886
Q 3006 2619 2597 2516
z
" transform="scale(0.015625)"/>
       </defs>
       <use xlink:href="#DejaVuSans-31" transform="translate(0 0.765625)"/>
       <use xlink:href="#DejaVuSans-30" transform="translate(63.623047 0.765625)"/>
       <use xlink:href="#DejaVuSans-33" transform="translate(128.203125 39.046875) scale(0.7)"/>
      </g>
     </g>
    </g>
    <g id="xtick_2">
     <g id="line2d_2">
      <g>
       <use xlink:href="#m7daf63e752" x="153.484843" y="140.682573" style="stroke: #000000; stroke-width: 0.8"/>
      </g>
     </g>
     <g id="text_2">
      <!-- $\mathdefault{10^{4}}$ -->
      <g transform="translate(147.324843 153.001479) scale(0.07 -0.07)">
       <defs>
        <path id="DejaVuSans-34" d="M 2419 4116
L 825 1625
L 2419 1625
L 2419 4116
z
M 2253 4666
L 3047 4666
L 3047 1625
L 3713 1625
L 3713 1100
L 3047 1100
L 3047 0
L 2419 0
L 2419 1100
L 313 1100
L 313 1709
L 2253 4666
z
" transform="scale(0.015625)"/>
       </defs>
       <use xlink:href="#DejaVuSans-31" transform="translate(0 0.684375)"/>
       <use xlink:href="#DejaVuSans-30" transform="translate(63.623047 0.684375)"/>
       <use xlink:href="#DejaVuSans-34" transform="translate(128.203125 38.965625) scale(0.7)"/>
      </g>
     </g>
    </g>
    <g id="xtick_3">
     <g id="line2d_3">
      <defs>
       <path id="m0a2b372496" d="M 0 0
L 0 2
" style="stroke: #000000; stroke-width: 0.6"/>
      </defs>
      <g>
       <use xlink:href="#m0a2b372496" x="44.295497" y="140.682573" style="stroke: #000000; stroke-width: 0.6"/>
      </g>
     </g>
    </g>
    <g id="xtick_4">
     <g id="line2d_4">
      <g>
       <use xlink:href="#m0a2b372496" x="53.253517" y="140.682573" style="stroke: #000000; stroke-width: 0.6"/>
      </g>
     </g>
    </g>
    <g id="xtick_5">
     <g id="line2d_5">
      <g>
       <use xlink:href="#m0a2b372496" x="60.201898" y="140.682573" style="stroke: #000000; stroke-width: 0.6"/>
      </g>
     </g>
    </g>
    <g id="xtick_6">
     <g id="line2d_6">
      <g>
       <use xlink:href="#m0a2b372496" x="65.879138" y="140.682573" style="stroke: #000000; stroke-width: 0.6"/>
      </g>
     </g>
    </g>
    <g id="xtick_7">
     <g id="line2d_7">
      <g>
       <use xlink:href="#m0a2b372496" x="70.679176" y="140.682573" style="stroke: #000000; stroke-width: 0.6"/>
      </g>
     </g>
    </g>
    <g id="xtick_8">
     <g id="line2d_8">
      <g>
       <use xlink:href="#m0a2b372496" x="74.837159" y="140.682573" style="stroke: #000000; stroke-width: 0.6"/>
      </g>
     </g>
    </g>
    <g id="xtick_9">
     <g id="line2d_9">
      <g>
       <use xlink:href="#m0a2b372496" x="78.504759" y="140.682573" style="stroke: #000000; stroke-width: 0.6"/>
      </g>
     </g>
    </g>
    <g id="xtick_10">
     <g id="line2d_10">
      <g>
       <use xlink:href="#m0a2b372496" x="103.36918" y="140.682573" style="stroke: #000000; stroke-width: 0.6"/>
      </g>
     </g>
    </g>
    <g id="xtick_11">
     <g id="line2d_11">
      <g>
       <use xlink:href="#m0a2b372496" x="115.994801" y="140.682573" style="stroke: #000000; stroke-width: 0.6"/>
      </g>
     </g>
    </g>
    <g id="xtick_12">
     <g id="line2d_12">
      <g>
       <use xlink:href="#m0a2b372496" x="124.952821" y="140.682573" style="stroke: #000000; stroke-width: 0.6"/>
      </g>
     </g>
    </g>
    <g id="xtick_13">
     <g id="line2d_13">
      <g>
       <use xlink:href="#m0a2b372496" x="131.901202" y="140.682573" style="stroke: #000000; stroke-width: 0.6"/>
      </g>
     </g>
    </g>
    <g id="xtick_14">
     <g id="line2d_14">
      <g>
       <use xlink:href="#m0a2b372496" x="137.578442" y="140.682573" style="stroke: #000000; stroke-width: 0.6"/>
      </g>
     </g>
    </g>
    <g id="xtick_15">
     <g id="line2d_15">
      <g>
       <use xlink:href="#m0a2b372496" x="142.37848" y="140.682573" style="stroke: #000000; stroke-width: 0.6"/>
      </g>
     </g>
    </g>
    <g id="xtick_16">
     <g id="line2d_16">
      <g>
       <use xlink:href="#m0a2b372496" x="146.536462" y="140.682573" style="stroke: #000000; stroke-width: 0.6"/>
      </g>
     </g>
    </g>
    <g id="xtick_17">
     <g id="line2d_17">
      <g>
       <use xlink:href="#m0a2b372496" x="150.204063" y="140.682573" style="stroke: #000000; stroke-width: 0.6"/>
      </g>
     </g>
    </g>
    <g id="text_3">
     <!-- Validation size, n -->
     <g transform="translate(62.194675 164.53601) scale(0.08 -0.08)">
      <defs>
       <path id="DejaVuSans-56" d="M 1831 0
L 50 4666
L 709 4666
L 2188 738
L 3669 4666
L 4325 4666
L 2547 0
L 1831 0
z
" transform="scale(0.015625)"/>
       <path id="DejaVuSans-61" d="M 2194 1759
Q 1497 1759 1228 1600
Q 959 1441 959 1056
Q 959 750 1161 570
Q 1363 391 1709 391
Q 2188 391 2477 730
Q 2766 1069 2766 1631
L 2766 1759
L 2194 1759
z
M 3341 1997
L 3341 0
L 2766 0
L 2766 531
Q 2569 213 2275 61
Q 1981 -91 1556 -91
Q 1019 -91 701 211
Q 384 513 384 1019
Q 384 1609 779 1909
Q 1175 2209 1959 2209
L 2766 2209
L 2766 2266
Q 2766 2663 2505 2880
Q 2244 3097 1772 3097
Q 1472 3097 1187 3025
Q 903 2953 641 2809
L 641 3341
Q 956 3463 1253 3523
Q 1550 3584 1831 3584
Q 2591 3584 2966 3190
Q 3341 2797 3341 1997
z
" transform="scale(0.015625)"/>
       <path id="DejaVuSans-6c" d="M 603 4863
L 1178 4863
L 1178 0
L 603 0
L 603 4863
z
" transform="scale(0.015625)"/>
       <path id="DejaVuSans-69" d="M 603 3500
L 1178 3500
L 1178 0
L 603 0
L 603 3500
z
M 603 4863
L 1178 4863
L 1178 4134
L 603 4134
L 603 4863
z
" transform="scale(0.015625)"/>
       <path id="DejaVuSans-64" d="M 2906 2969
L 2906 4863
L 3481 4863
L 3481 0
L 2906 0
L 2906 525
Q 2725 213 2448 61
Q 2172 -91 1784 -91
Q 1150 -91 751 415
Q 353 922 353 1747
Q 353 2572 751 3078
Q 1150 3584 1784 3584
Q 2172 3584 2448 3432
Q 2725 3281 2906 2969
z
M 947 1747
Q 947 1113 1208 752
Q 1469 391 1925 391
Q 2381 391 2643 752
Q 2906 1113 2906 1747
Q 2906 2381 2643 2742
Q 2381 3103 1925 3103
Q 1469 3103 1208 2742
Q 947 2381 947 1747
z
" transform="scale(0.015625)"/>
       <path id="DejaVuSans-74" d="M 1172 4494
L 1172 3500
L 2356 3500
L 2356 3053
L 1172 3053
L 1172 1153
Q 1172 725 1289 603
Q 1406 481 1766 481
L 2356 481
L 2356 0
L 1766 0
Q 1100 0 847 248
Q 594 497 594 1153
L 594 3053
L 172 3053
L 172 3500
L 594 3500
L 594 4494
L 1172 4494
z
" transform="scale(0.015625)"/>
       <path id="DejaVuSans-6f" d="M 1959 3097
Q 1497 3097 1228 2736
Q 959 2375 959 1747
Q 959 1119 1226 758
Q 1494 397 1959 397
Q 2419 397 2687 759
Q 2956 1122 2956 1747
Q 2956 2369 2687 2733
Q 2419 3097 1959 3097
z
M 1959 3584
Q 2709 3584 3137 3096
Q 3566 2609 3566 1747
Q 3566 888 3137 398
Q 2709 -91 1959 -91
Q 1206 -91 779 398
Q 353 888 353 1747
Q 353 2609 779 3096
Q 1206 3584 1959 3584
z
" transform="scale(0.015625)"/>
       <path id="DejaVuSans-6e" d="M 3513 2113
L 3513 0
L 2938 0
L 2938 2094
Q 2938 2591 2744 2837
Q 2550 3084 2163 3084
Q 1697 3084 1428 2787
Q 1159 2491 1159 1978
L 1159 0
L 581 0
L 581 3500
L 1159 3500
L 1159 2956
Q 1366 3272 1645 3428
Q 1925 3584 2291 3584
Q 2894 3584 3203 3211
Q 3513 2838 3513 2113
z
" transform="scale(0.015625)"/>
       <path id="DejaVuSans-20" transform="scale(0.015625)"/>
       <path id="DejaVuSans-73" d="M 2834 3397
L 2834 2853
Q 2591 2978 2328 3040
Q 2066 3103 1784 3103
Q 1356 3103 1142 2972
Q 928 2841 928 2578
Q 928 2378 1081 2264
Q 1234 2150 1697 2047
L 1894 2003
Q 2506 1872 2764 1633
Q 3022 1394 3022 966
Q 3022 478 2636 193
Q 2250 -91 1575 -91
Q 1294 -91 989 -36
Q 684 19 347 128
L 347 722
Q 666 556 975 473
Q 1284 391 1588 391
Q 1994 391 2212 530
Q 2431 669 2431 922
Q 2431 1156 2273 1281
Q 2116 1406 1581 1522
L 1381 1569
Q 847 1681 609 1914
Q 372 2147 372 2553
Q 372 3047 722 3315
Q 1072 3584 1716 3584
Q 2034 3584 2315 3537
Q 2597 3491 2834 3397
z
" transform="scale(0.015625)"/>
       <path id="DejaVuSans-7a" d="M 353 3500
L 3084 3500
L 3084 2975
L 922 459
L 3084 459
L 3084 0
L 275 0
L 275 525
L 2438 3041
L 353 3041
L 353 3500
z
" transform="scale(0.015625)"/>
       <path id="DejaVuSans-65" d="M 3597 1894
L 3597 1613
L 953 1613
Q 991 1019 1311 708
Q 1631 397 2203 397
Q 2534 397 2845 478
Q 3156 559 3463 722
L 3463 178
Q 3153 47 2828 -22
Q 2503 -91 2169 -91
Q 1331 -91 842 396
Q 353 884 353 1716
Q 353 2575 817 3079
Q 1281 3584 2069 3584
Q 2775 3584 3186 3129
Q 3597 2675 3597 1894
z
M 3022 2063
Q 3016 2534 2758 2815
Q 2500 3097 2075 3097
Q 1594 3097 1305 2825
Q 1016 2553 972 2059
L 3022 2063
z
" transform="scale(0.015625)"/>
       <path id="DejaVuSans-2c" d="M 750 794
L 1409 794
L 1409 256
L 897 -744
L 494 -744
L 750 256
L 750 794
z
" transform="scale(0.015625)"/>
      </defs>
      <use xlink:href="#DejaVuSans-56"/>
      <use xlink:href="#DejaVuSans-61" x="60.658203"/>
      <use xlink:href="#DejaVuSans-6c" x="121.9375"/>
      <use xlink:href="#DejaVuSans-69" x="149.720703"/>
      <use xlink:href="#DejaVuSans-64" x="177.503906"/>
      <use xlink:href="#DejaVuSans-61" x="240.980469"/>
      <use xlink:href="#DejaVuSans-74" x="302.259766"/>
      <use xlink:href="#DejaVuSans-69" x="341.46875"/>
      <use xlink:href="#DejaVuSans-6f" x="369.251953"/>
      <use xlink:href="#DejaVuSans-6e" x="430.433594"/>
      <use xlink:href="#DejaVuSans-20" x="493.8125"/>
      <use xlink:href="#DejaVuSans-73" x="525.599609"/>
      <use xlink:href="#DejaVuSans-69" x="577.699219"/>
      <use xlink:href="#DejaVuSans-7a" x="605.482422"/>
      <use xlink:href="#DejaVuSans-65" x="657.972656"/>
      <use xlink:href="#DejaVuSans-2c" x="719.496094"/>
      <use xlink:href="#DejaVuSans-20" x="751.283203"/>
      <use xlink:href="#DejaVuSans-6e" x="783.070312"/>
     </g>
    </g>
   </g>
   <g id="matplotlib.axis_2">
    <g id="ytick_1">
     <g id="line2d_18">
      <path d="M 32.874928 137.149259
L 159.228172 137.149259
" clip-path="url(#pff8899fef0)" style="fill: none; stroke: #d9d9d9; stroke-opacity: 0.7; stroke-width: 0.45; stroke-linecap: square"/>
     </g>
     <g id="line2d_19">
      <defs>
       <path id="mbb61af0f07" d="M 0 0
L -3.5 0
" style="stroke: #000000; stroke-width: 0.8"/>
      </defs>
      <g>
       <use xlink:href="#mbb61af0f07" x="32.874928" y="137.149259" style="stroke: #000000; stroke-width: 0.8"/>
      </g>
     </g>
     <g id="text_4">
      <!-- 0.0 -->
      <g transform="translate(14.74274 139.808712) scale(0.07 -0.07)">
       <defs>
        <path id="DejaVuSans-2e" d="M 684 794
L 1344 794
L 1344 0
L 684 0
L 684 794
z
" transform="scale(0.015625)"/>
       </defs>
       <use xlink:href="#DejaVuSans-30"/>
       <use xlink:href="#DejaVuSans-2e" x="63.623047"/>
       <use xlink:href="#DejaVuSans-30" x="95.410156"/>
      </g>
     </g>
    </g>
    <g id="ytick_2">
     <g id="line2d_20">
      <path d="M 32.874928 113.593837
L 159.228172 113.593837
" clip-path="url(#pff8899fef0)" style="fill: none; stroke: #d9d9d9; stroke-opacity: 0.7; stroke-width: 0.45; stroke-linecap: square"/>
     </g>
     <g id="line2d_21">
      <g>
       <use xlink:href="#mbb61af0f07" x="32.874928" y="113.593837" style="stroke: #000000; stroke-width: 0.8"/>
      </g>
     </g>
     <g id="text_5">
      <!-- 0.2 -->
      <g transform="translate(14.74274 116.25329) scale(0.07 -0.07)">
       <defs>
        <path id="DejaVuSans-32" d="M 1228 531
L 3431 531
L 3431 0
L 469 0
L 469 531
Q 828 903 1448 1529
Q 2069 2156 2228 2338
Q 2531 2678 2651 2914
Q 2772 3150 2772 3378
Q 2772 3750 2511 3984
Q 2250 4219 1831 4219
Q 1534 4219 1204 4116
Q 875 4013 500 3803
L 500 4441
Q 881 4594 1212 4672
Q 1544 4750 1819 4750
Q 2544 4750 2975 4387
Q 3406 4025 3406 3419
Q 3406 3131 3298 2873
Q 3191 2616 2906 2266
Q 2828 2175 2409 1742
Q 1991 1309 1228 531
z
" transform="scale(0.015625)"/>
       </defs>
       <use xlink:href="#DejaVuSans-30"/>
       <use xlink:href="#DejaVuSans-2e" x="63.623047"/>
       <use xlink:href="#DejaVuSans-32" x="95.410156"/>
      </g>
     </g>
    </g>
    <g id="ytick_3">
     <g id="line2d_22">
      <path d="M 32.874928 90.038414
L 159.228172 90.038414
" clip-path="url(#pff8899fef0)" style="fill: none; stroke: #d9d9d9; stroke-opacity: 0.7; stroke-width: 0.45; stroke-linecap: square"/>
     </g>
     <g id="line2d_23">
      <g>
       <use xlink:href="#mbb61af0f07" x="32.874928" y="90.038414" style="stroke: #000000; stroke-width: 0.8"/>
      </g>
     </g>
     <g id="text_6">
      <!-- 0.4 -->
      <g transform="translate(14.74274 92.697867) scale(0.07 -0.07)">
       <use xlink:href="#DejaVuSans-30"/>
       <use xlink:href="#DejaVuSans-2e" x="63.623047"/>
       <use xlink:href="#DejaVuSans-34" x="95.410156"/>
      </g>
     </g>
    </g>
    <g id="ytick_4">
     <g id="line2d_24">
      <path d="M 32.874928 66.482992
L 159.228172 66.482992
" clip-path="url(#pff8899fef0)" style="fill: none; stroke: #d9d9d9; stroke-opacity: 0.7; stroke-width: 0.45; stroke-linecap: square"/>
     </g>
     <g id="line2d_25">
      <g>
       <use xlink:href="#mbb61af0f07" x="32.874928" y="66.482992" style="stroke: #000000; stroke-width: 0.8"/>
      </g>
     </g>
     <g id="text_7">
      <!-- 0.6 -->
      <g transform="translate(14.74274 69.142445) scale(0.07 -0.07)">
       <defs>
        <path id="DejaVuSans-36" d="M 2113 2584
Q 1688 2584 1439 2293
Q 1191 2003 1191 1497
Q 1191 994 1439 701
Q 1688 409 2113 409
Q 2538 409 2786 701
Q 3034 994 3034 1497
Q 3034 2003 2786 2293
Q 2538 2584 2113 2584
z
M 3366 4563
L 3366 3988
Q 3128 4100 2886 4159
Q 2644 4219 2406 4219
Q 1781 4219 1451 3797
Q 1122 3375 1075 2522
Q 1259 2794 1537 2939
Q 1816 3084 2150 3084
Q 2853 3084 3261 2657
Q 3669 2231 3669 1497
Q 3669 778 3244 343
Q 2819 -91 2113 -91
Q 1303 -91 875 529
Q 447 1150 447 2328
Q 447 3434 972 4092
Q 1497 4750 2381 4750
Q 2619 4750 2861 4703
Q 3103 4656 3366 4563
z
" transform="scale(0.015625)"/>
       </defs>
       <use xlink:href="#DejaVuSans-30"/>
       <use xlink:href="#DejaVuSans-2e" x="63.623047"/>
       <use xlink:href="#DejaVuSans-36" x="95.410156"/>
      </g>
     </g>
    </g>
    <g id="ytick_5">
     <g id="line2d_26">
      <path d="M 32.874928 42.92757
L 159.228172 42.92757
" clip-path="url(#pff8899fef0)" style="fill: none; stroke: #d9d9d9; stroke-opacity: 0.7; stroke-width: 0.45; stroke-linecap: square"/>
     </g>
     <g id="line2d_27">
      <g>
       <use xlink:href="#mbb61af0f07" x="32.874928" y="42.92757" style="stroke: #000000; stroke-width: 0.8"/>
      </g>
     </g>
     <g id="text_8">
      <!-- 0.8 -->
      <g transform="translate(14.74274 45.587023) scale(0.07 -0.07)">
       <defs>
        <path id="DejaVuSans-38" d="M 2034 2216
Q 1584 2216 1326 1975
Q 1069 1734 1069 1313
Q 1069 891 1326 650
Q 1584 409 2034 409
Q 2484 409 2743 651
Q 3003 894 3003 1313
Q 3003 1734 2745 1975
Q 2488 2216 2034 2216
z
M 1403 2484
Q 997 2584 770 2862
Q 544 3141 544 3541
Q 544 4100 942 4425
Q 1341 4750 2034 4750
Q 2731 4750 3128 4425
Q 3525 4100 3525 3541
Q 3525 3141 3298 2862
Q 3072 2584 2669 2484
Q 3125 2378 3379 2068
Q 3634 1759 3634 1313
Q 3634 634 3220 271
Q 2806 -91 2034 -91
Q 1263 -91 848 271
Q 434 634 434 1313
Q 434 1759 690 2068
Q 947 2378 1403 2484
z
M 1172 3481
Q 1172 3119 1398 2916
Q 1625 2713 2034 2713
Q 2441 2713 2670 2916
Q 2900 3119 2900 3481
Q 2900 3844 2670 4047
Q 2441 4250 2034 4250
Q 1625 4250 1398 4047
Q 1172 3844 1172 3481
z
" transform="scale(0.015625)"/>
       </defs>
       <use xlink:href="#DejaVuSans-30"/>
       <use xlink:href="#DejaVuSans-2e" x="63.623047"/>
       <use xlink:href="#DejaVuSans-38" x="95.410156"/>
      </g>
     </g>
    </g>
    <g id="ytick_6">
     <g id="line2d_28">
      <path d="M 32.874928 19.372147
L 159.228172 19.372147
" clip-path="url(#pff8899fef0)" style="fill: none; stroke: #d9d9d9; stroke-opacity: 0.7; stroke-width: 0.45; stroke-linecap: square"/>
     </g>
     <g id="line2d_29">
      <g>
       <use xlink:href="#mbb61af0f07" x="32.874928" y="19.372147" style="stroke: #000000; stroke-width: 0.8"/>
      </g>
     </g>
     <g id="text_9">
      <!-- 1.0 -->
      <g transform="translate(14.74274 22.0316) scale(0.07 -0.07)">
       <use xlink:href="#DejaVuSans-31"/>
       <use xlink:href="#DejaVuSans-2e" x="63.623047"/>
       <use xlink:href="#DejaVuSans-30" x="95.410156"/>
      </g>
     </g>
    </g>
    <g id="text_10">
     <!-- Abstention rate -->
     <g transform="translate(9.07899 109.242578) rotate(-90) scale(0.08 -0.08)">
      <defs>
       <path id="DejaVuSans-41" d="M 2188 4044
L 1331 1722
L 3047 1722
L 2188 4044
z
M 1831 4666
L 2547 4666
L 4325 0
L 3669 0
L 3244 1197
L 1141 1197
L 716 0
L 50 0
L 1831 4666
z
" transform="scale(0.015625)"/>
       <path id="DejaVuSans-62" d="M 3116 1747
Q 3116 2381 2855 2742
Q 2594 3103 2138 3103
Q 1681 3103 1420 2742
Q 1159 2381 1159 1747
Q 1159 1113 1420 752
Q 1681 391 2138 391
Q 2594 391 2855 752
Q 3116 1113 3116 1747
z
M 1159 2969
Q 1341 3281 1617 3432
Q 1894 3584 2278 3584
Q 2916 3584 3314 3078
Q 3713 2572 3713 1747
Q 3713 922 3314 415
Q 2916 -91 2278 -91
Q 1894 -91 1617 61
Q 1341 213 1159 525
L 1159 0
L 581 0
L 581 4863
L 1159 4863
L 1159 2969
z
" transform="scale(0.015625)"/>
       <path id="DejaVuSans-72" d="M 2631 2963
Q 2534 3019 2420 3045
Q 2306 3072 2169 3072
Q 1681 3072 1420 2755
Q 1159 2438 1159 1844
L 1159 0
L 581 0
L 581 3500
L 1159 3500
L 1159 2956
Q 1341 3275 1631 3429
Q 1922 3584 2338 3584
Q 2397 3584 2469 3576
Q 2541 3569 2628 3553
L 2631 2963
z
" transform="scale(0.015625)"/>
      </defs>
      <use xlink:href="#DejaVuSans-41"/>
      <use xlink:href="#DejaVuSans-62" x="68.408203"/>
      <use xlink:href="#DejaVuSans-73" x="131.884766"/>
      <use xlink:href="#DejaVuSans-74" x="183.984375"/>
      <use xlink:href="#DejaVuSans-65" x="223.193359"/>
      <use xlink:href="#DejaVuSans-6e" x="284.716797"/>
      <use xlink:href="#DejaVuSans-74" x="348.095703"/>
      <use xlink:href="#DejaVuSans-69" x="387.304688"/>
      <use xlink:href="#DejaVuSans-6f" x="415.087891"/>
      <use xlink:href="#DejaVuSans-6e" x="476.269531"/>
      <use xlink:href="#DejaVuSans-20" x="539.648438"/>
      <use xlink:href="#DejaVuSans-72" x="571.435547"/>
      <use xlink:href="#DejaVuSans-61" x="612.548828"/>
      <use xlink:href="#DejaVuSans-74" x="673.828125"/>
      <use xlink:href="#DejaVuSans-65" x="713.037109"/>
     </g>
    </g>
   </g>
   <g id="line2d_30">
    <path d="M 38.618257 19.372147
L 60.201898 19.372147
L 81.785539 19.372147
L 103.36918 19.966228
L 131.901202 137.149259
L 153.484843 137.149259
" clip-path="url(#pff8899fef0)" style="fill: none; stroke-dasharray: 5.18,2.24; stroke-dashoffset: 0; stroke: #0072b2; stroke-width: 1.4"/>
   </g>
   <g id="line2d_31">
    <path d="M 38.618257 19.372147
L 60.201898 19.372147
L 81.785539 19.372147
L 103.36918 48.936012
L 131.901202 137.149259
L 153.484843 137.149259
" clip-path="url(#pff8899fef0)" style="fill: none; stroke-dasharray: 5.18,2.24; stroke-dashoffset: 0; stroke: #d55e00; stroke-width: 1.4"/>
   </g>
   <g id="line2d_32">
    <path d="M 38.618257 19.372147
L 60.201898 19.372147
L 81.785539 19.372147
L 103.36918 95.330082
L 131.901202 137.149259
L 153.484843 137.149259
" clip-path="url(#pff8899fef0)" style="fill: none; stroke-dasharray: 5.18,2.24; stroke-dashoffset: 0; stroke: #009e73; stroke-width: 1.4"/>
   </g>
   <g id="patch_3">
    <path d="M 32.874928 140.682573
L 32.874928 15.838834
" style="fill: none; stroke: #000000; stroke-width: 0.7; stroke-linejoin: miter; stroke-linecap: square"/>
   </g>
   <g id="patch_4">
    <path d="M 32.874928 140.682573
L 159.228172 140.682573
" style="fill: none; stroke: #000000; stroke-width: 0.7; stroke-linejoin: miter; stroke-linecap: square"/>
   </g>
   <g id="PathCollection_1">
    <defs>
     <path id="m510b6d04a4" d="M 0 2.179449
C 0.577997 2.179449 1.132398 1.949809 1.541104 1.541104
C 1.949809 1.132398 2.179449 0.577997 2.179449 0
C 2.179449 -0.577997 1.949809 -1.132398 1.541104 -1.541104
C 1.132398 -1.949809 0.577997 -2.179449 0 -2.179449
C -0.577997 -2.179449 -1.132398 -1.949809 -1.541104 -1.541104
C -1.949809 -1.132398 -2.179449 -0.577997 -2.179449 0
C -2.179449 0.577997 -1.949809 1.132398 -1.541104 1.541104
C -1.132398 1.949809 -0.577997 2.179449 0 2.179449
z
" style="stroke: #ffffff; stroke-width: 0.4"/>
    </defs>
    <g clip-path="url(#pff8899fef0)">
     <use xlink:href="#m510b6d04a4" x="38.618257" y="19.372147" style="fill: #0072b2; stroke: #ffffff; stroke-width: 0.4"/>
     <use xlink:href="#m510b6d04a4" x="60.201898" y="19.372147" style="fill: #0072b2; stroke: #ffffff; stroke-width: 0.4"/>
     <use xlink:href="#m510b6d04a4" x="81.785539" y="19.372147" style="fill: #0072b2; stroke: #ffffff; stroke-width: 0.4"/>
     <use xlink:href="#m510b6d04a4" x="103.36918" y="19.725478" style="fill: #0072b2; stroke: #ffffff; stroke-width: 0.4"/>
     <use xlink:href="#m510b6d04a4" x="131.901202" y="137.149259" style="fill: #0072b2; stroke: #ffffff; stroke-width: 0.4"/>
     <use xlink:href="#m510b6d04a4" x="153.484843" y="137.149259" style="fill: #0072b2; stroke: #ffffff; stroke-width: 0.4"/>
    </g>
   </g>
   <g id="PathCollection_2">
    <defs>
     <path id="mf06523686b" d="M -2.179449 2.179449
L 2.179449 2.179449
L 2.179449 -2.179449
L -2.179449 -2.179449
z
" style="stroke: #ffffff; stroke-width: 0.4"/>
    </defs>
    <g clip-path="url(#pff8899fef0)">
     <use xlink:href="#mf06523686b" x="38.618257" y="19.372147" style="fill: #d55e00; stroke: #ffffff; stroke-width: 0.4"/>
     <use xlink:href="#mf06523686b" x="60.201898" y="19.372147" style="fill: #d55e00; stroke: #ffffff; stroke-width: 0.4"/>
     <use xlink:href="#mf06523686b" x="81.785539" y="19.372147" style="fill: #d55e00; stroke: #ffffff; stroke-width: 0.4"/>
     <use xlink:href="#mf06523686b" x="103.36918" y="50.700859" style="fill: #d55e00; stroke: #ffffff; stroke-width: 0.4"/>
     <use xlink:href="#mf06523686b" x="131.901202" y="137.149259" style="fill: #d55e00; stroke: #ffffff; stroke-width: 0.4"/>
     <use xlink:href="#mf06523686b" x="153.484843" y="137.149259" style="fill: #d55e00; stroke: #ffffff; stroke-width: 0.4"/>
    </g>
   </g>
   <g id="PathCollection_3">
    <defs>
     <path id="m2e1047bb07" d="M 0 -2.179449
L -2.179449 2.179449
L 2.179449 2.179449
z
" style="stroke: #ffffff; stroke-width: 0.4"/>
    </defs>
    <g clip-path="url(#pff8899fef0)">
     <use xlink:href="#m2e1047bb07" x="38.618257" y="19.372147" style="fill: #009e73; stroke: #ffffff; stroke-width: 0.4"/>
     <use xlink:href="#m2e1047bb07" x="60.201898" y="19.372147" style="fill: #009e73; stroke: #ffffff; stroke-width: 0.4"/>
     <use xlink:href="#m2e1047bb07" x="81.785539" y="19.372147" style="fill: #009e73; stroke: #ffffff; stroke-width: 0.4"/>
     <use xlink:href="#m2e1047bb07" x="103.36918" y="96.516155" style="fill: #009e73; stroke: #ffffff; stroke-width: 0.4"/>
     <use xlink:href="#m2e1047bb07" x="131.901202" y="137.149259" style="fill: #009e73; stroke: #ffffff; stroke-width: 0.4"/>
     <use xlink:href="#m2e1047bb07" x="153.484843" y="137.149259" style="fill: #009e73; stroke: #ffffff; stroke-width: 0.4"/>
    </g>
   </g>
   <g id="text_11">
    <!-- A -->
    <g transform="translate(12.658408 13.449772) scale(0.1 -0.1)">
     <defs>
      <path id="DejaVuSans-Bold-41" d="M 3419 850
L 1538 850
L 1241 0
L 31 0
L 1759 4666
L 3194 4666
L 4922 0
L 3713 0
L 3419 850
z
M 1838 1716
L 3116 1716
L 2478 3572
L 1838 1716
z
" transform="scale(0.015625)"/>
     </defs>
     <use xlink:href="#DejaVuSans-Bold-41"/>
    </g>
   </g>
   <g id="text_12">
    <!-- Abstention theory match -->
    <g transform="translate(40.02444 9.838834) scale(0.09 -0.09)">
     <defs>
      <path id="DejaVuSans-68" d="M 3513 2113
L 3513 0
L 2938 0
L 2938 2094
Q 2938 2591 2744 2837
Q 2550 3084 2163 3084
Q 1697 3084 1428 2787
Q 1159 2491 1159 1978
L 1159 0
L 581 0
L 581 4863
L 1159 4863
L 1159 2956
Q 1366 3272 1645 3428
Q 1925 3584 2291 3584
Q 2894 3584 3203 3211
Q 3513 2838 3513 2113
z
" transform="scale(0.015625)"/>
      <path id="DejaVuSans-79" d="M 2059 -325
Q 1816 -950 1584 -1140
Q 1353 -1331 966 -1331
L 506 -1331
L 506 -850
L 844 -850
Q 1081 -850 1212 -737
Q 1344 -625 1503 -206
L 1606 56
L 191 3500
L 800 3500
L 1894 763
L 2988 3500
L 3597 3500
L 2059 -325
z
" transform="scale(0.015625)"/>
      <path id="DejaVuSans-6d" d="M 3328 2828
Q 3544 3216 3844 3400
Q 4144 3584 4550 3584
Q 5097 3584 5394 3201
Q 5691 2819 5691 2113
L 5691 0
L 5113 0
L 5113 2094
Q 5113 2597 4934 2840
Q 4756 3084 4391 3084
Q 3944 3084 3684 2787
Q 3425 2491 3425 1978
L 3425 0
L 2847 0
L 2847 2094
Q 2847 2600 2669 2842
Q 2491 3084 2119 3084
Q 1678 3084 1418 2786
Q 1159 2488 1159 1978
L 1159 0
L 581 0
L 581 3500
L 1159 3500
L 1159 2956
Q 1356 3278 1631 3431
Q 1906 3584 2284 3584
Q 2666 3584 2933 3390
Q 3200 3197 3328 2828
z
" transform="scale(0.015625)"/>
      <path id="DejaVuSans-63" d="M 3122 3366
L 3122 2828
Q 2878 2963 2633 3030
Q 2388 3097 2138 3097
Q 1578 3097 1268 2742
Q 959 2388 959 1747
Q 959 1106 1268 751
Q 1578 397 2138 397
Q 2388 397 2633 464
Q 2878 531 3122 666
L 3122 134
Q 2881 22 2623 -34
Q 2366 -91 2075 -91
Q 1284 -91 818 406
Q 353 903 353 1747
Q 353 2603 823 3093
Q 1294 3584 2113 3584
Q 2378 3584 2631 3529
Q 2884 3475 3122 3366
z
" transform="scale(0.015625)"/>
     </defs>
     <use xlink:href="#DejaVuSans-41"/>
     <use xlink:href="#DejaVuSans-62" x="68.408203"/>
     <use xlink:href="#DejaVuSans-73" x="131.884766"/>
     <use xlink:href="#DejaVuSans-74" x="183.984375"/>
     <use xlink:href="#DejaVuSans-65" x="223.193359"/>
     <use xlink:href="#DejaVuSans-6e" x="284.716797"/>
     <use xlink:href="#DejaVuSans-74" x="348.095703"/>
     <use xlink:href="#DejaVuSans-69" x="387.304688"/>
     <use xlink:href="#DejaVuSans-6f" x="415.087891"/>
     <use xlink:href="#DejaVuSans-6e" x="476.269531"/>
     <use xlink:href="#DejaVuSans-20" x="539.648438"/>
     <use xlink:href="#DejaVuSans-74" x="571.435547"/>
     <use xlink:href="#DejaVuSans-68" x="610.644531"/>
     <use xlink:href="#DejaVuSans-65" x="674.023438"/>
     <use xlink:href="#DejaVuSans-6f" x="735.546875"/>
     <use xlink:href="#DejaVuSans-72" x="796.728516"/>
     <use xlink:href="#DejaVuSans-79" x="837.841797"/>
     <use xlink:href="#DejaVuSans-20" x="897.021484"/>
     <use xlink:href="#DejaVuSans-6d" x="928.808594"/>
     <use xlink:href="#DejaVuSans-61" x="1026.220703"/>
     <use xlink:href="#DejaVuSans-74" x="1087.5"/>
     <use xlink:href="#DejaVuSans-63" x="1126.708984"/>
     <use xlink:href="#DejaVuSans-68" x="1181.689453"/>
    </g>
   </g>
   <g id="legend_1">
    <g id="PathCollection_4">
     <g>
      <use xlink:href="#m510b6d04a4" x="46.174928" y="68.080078" style="fill: #0072b2; stroke: #ffffff; stroke-width: 0.4"/>
     </g>
    </g>
    <g id="text_13">
     <!-- $\delta=0.01$ -->
     <g transform="translate(58.774928 69.917578) scale(0.07 -0.07)">
      <defs>
       <path id="DejaVuSans-Oblique-3b4" d="M 3472 4053
Q 3197 4272 2450 4272
Q 1659 4272 1588 3906
Q 1531 3619 2328 3469
Q 2953 3353 3253 3003
Q 3616 2581 3447 1716
Q 3284 888 2763 400
Q 2238 -91 1488 -91
Q 741 -91 406 400
Q 72 888 241 1747
Q 363 2384 891 2900
Q 1097 3100 1353 3213
Q 913 3459 1000 3900
Q 1166 4750 2544 4750
Q 3234 4750 3566 4531
L 3472 4053
z
M 1753 3056
Q 1525 2966 1306 2738
Q 969 2384 847 1747
Q 722 1113 919 756
Q 1119 397 1584 397
Q 2044 397 2381 759
Q 2722 1122 2838 1716
Q 2956 2338 2731 2638
Q 2491 2959 2103 2994
Q 1906 3013 1753 3056
z
" transform="scale(0.015625)"/>
       <path id="DejaVuSans-3d" d="M 678 2906
L 4684 2906
L 4684 2381
L 678 2381
L 678 2906
z
M 678 1631
L 4684 1631
L 4684 1100
L 678 1100
L 678 1631
z
" transform="scale(0.015625)"/>
      </defs>
      <use xlink:href="#DejaVuSans-Oblique-3b4" transform="translate(0 0.78125)"/>
      <use xlink:href="#DejaVuSans-3d" transform="translate(80.664062 0.78125)"/>
      <use xlink:href="#DejaVuSans-30" transform="translate(183.935547 0.78125)"/>
      <use xlink:href="#DejaVuSans-2e" transform="translate(247.558594 0.78125)"/>
      <use xlink:href="#DejaVuSans-30" transform="translate(279.345703 0.78125)"/>
      <use xlink:href="#DejaVuSans-31" transform="translate(342.96875 0.78125)"/>
     </g>
    </g>
    <g id="PathCollection_5">
     <g>
      <use xlink:href="#mf06523686b" x="46.174928" y="78.354766" style="fill: #d55e00; stroke: #ffffff; stroke-width: 0.4"/>
     </g>
    </g>
    <g id="text_14">
     <!-- $\delta=0.05$ -->
     <g transform="translate(58.774928 80.192266) scale(0.07 -0.07)">
      <defs>
       <path id="DejaVuSans-35" d="M 691 4666
L 3169 4666
L 3169 4134
L 1269 4134
L 1269 2991
Q 1406 3038 1543 3061
Q 1681 3084 1819 3084
Q 2600 3084 3056 2656
Q 3513 2228 3513 1497
Q 3513 744 3044 326
Q 2575 -91 1722 -91
Q 1428 -91 1123 -41
Q 819 9 494 109
L 494 744
Q 775 591 1075 516
Q 1375 441 1709 441
Q 2250 441 2565 725
Q 2881 1009 2881 1497
Q 2881 1984 2565 2268
Q 2250 2553 1709 2553
Q 1456 2553 1204 2497
Q 953 2441 691 2322
L 691 4666
z
" transform="scale(0.015625)"/>
      </defs>
      <use xlink:href="#DejaVuSans-Oblique-3b4" transform="translate(0 0.78125)"/>
      <use xlink:href="#DejaVuSans-3d" transform="translate(80.664062 0.78125)"/>
      <use xlink:href="#DejaVuSans-30" transform="translate(183.935547 0.78125)"/>
      <use xlink:href="#DejaVuSans-2e" transform="translate(247.558594 0.78125)"/>
      <use xlink:href="#DejaVuSans-30" transform="translate(279.345703 0.78125)"/>
      <use xlink:href="#DejaVuSans-35" transform="translate(342.96875 0.78125)"/>
     </g>
    </g>
    <g id="PathCollection_6">
     <g>
      <use xlink:href="#m2e1047bb07" x="46.174928" y="88.629453" style="fill: #009e73; stroke: #ffffff; stroke-width: 0.4"/>
     </g>
    </g>
    <g id="text_15">
     <!-- $\delta=0.10$ -->
     <g transform="translate(58.774928 90.466953) scale(0.07 -0.07)">
      <use xlink:href="#DejaVuSans-Oblique-3b4" transform="translate(0 0.78125)"/>
      <use xlink:href="#DejaVuSans-3d" transform="translate(80.664062 0.78125)"/>
      <use xlink:href="#DejaVuSans-30" transform="translate(183.935547 0.78125)"/>
      <use xlink:href="#DejaVuSans-2e" transform="translate(247.558594 0.78125)"/>
      <use xlink:href="#DejaVuSans-31" transform="translate(279.345703 0.78125)"/>
      <use xlink:href="#DejaVuSans-30" transform="translate(342.96875 0.78125)"/>
     </g>
    </g>
   </g>
  </g>
  <g id="axes_2">
   <g id="patch_5">
    <path d="M 214.747362 140.682573
L 341.100607 140.682573
L 341.100607 15.838834
L 214.747362 15.838834
z
" style="fill: #ffffff"/>
   </g>
   <g id="matplotlib.axis_3">
    <g id="xtick_18">
     <g id="line2d_33">
      <g>
       <use xlink:href="#m7daf63e752" x="263.657974" y="140.682573" style="stroke: #000000; stroke-width: 0.8"/>
      </g>
     </g>
     <g id="text_16">
      <!-- $\mathdefault{10^{3}}$ -->
      <g transform="translate(257.497974 153.001479) scale(0.07 -0.07)">
       <use xlink:href="#DejaVuSans-31" transform="translate(0 0.765625)"/>
       <use xlink:href="#DejaVuSans-30" transform="translate(63.623047 0.765625)"/>
       <use xlink:href="#DejaVuSans-33" transform="translate(128.203125 39.046875) scale(0.7)"/>
      </g>
     </g>
    </g>
    <g id="xtick_19">
     <g id="line2d_34">
      <g>
       <use xlink:href="#m7daf63e752" x="335.357277" y="140.682573" style="stroke: #000000; stroke-width: 0.8"/>
      </g>
     </g>
     <g id="text_17">
      <!-- $\mathdefault{10^{4}}$ -->
      <g transform="translate(329.197277 153.001479) scale(0.07 -0.07)">
       <use xlink:href="#DejaVuSans-31" transform="translate(0 0.684375)"/>
       <use xlink:href="#DejaVuSans-30" transform="translate(63.623047 0.684375)"/>
       <use xlink:href="#DejaVuSans-34" transform="translate(128.203125 38.965625) scale(0.7)"/>
      </g>
     </g>
    </g>
    <g id="xtick_20">
     <g id="line2d_35">
      <g>
       <use xlink:href="#m0a2b372496" x="226.167932" y="140.682573" style="stroke: #000000; stroke-width: 0.6"/>
      </g>
     </g>
    </g>
    <g id="xtick_21">
     <g id="line2d_36">
      <g>
       <use xlink:href="#m0a2b372496" x="235.125952" y="140.682573" style="stroke: #000000; stroke-width: 0.6"/>
      </g>
     </g>
    </g>
    <g id="xtick_22">
     <g id="line2d_37">
      <g>
       <use xlink:href="#m0a2b372496" x="242.074332" y="140.682573" style="stroke: #000000; stroke-width: 0.6"/>
      </g>
     </g>
    </g>
    <g id="xtick_23">
     <g id="line2d_38">
      <g>
       <use xlink:href="#m0a2b372496" x="247.751573" y="140.682573" style="stroke: #000000; stroke-width: 0.6"/>
      </g>
     </g>
    </g>
    <g id="xtick_24">
     <g id="line2d_39">
      <g>
       <use xlink:href="#m0a2b372496" x="252.551611" y="140.682573" style="stroke: #000000; stroke-width: 0.6"/>
      </g>
     </g>
    </g>
    <g id="xtick_25">
     <g id="line2d_40">
      <g>
       <use xlink:href="#m0a2b372496" x="256.709593" y="140.682573" style="stroke: #000000; stroke-width: 0.6"/>
      </g>
     </g>
    </g>
    <g id="xtick_26">
     <g id="line2d_41">
      <g>
       <use xlink:href="#m0a2b372496" x="260.377193" y="140.682573" style="stroke: #000000; stroke-width: 0.6"/>
      </g>
     </g>
    </g>
    <g id="xtick_27">
     <g id="line2d_42">
      <g>
       <use xlink:href="#m0a2b372496" x="285.241615" y="140.682573" style="stroke: #000000; stroke-width: 0.6"/>
      </g>
     </g>
    </g>
    <g id="xtick_28">
     <g id="line2d_43">
      <g>
       <use xlink:href="#m0a2b372496" x="297.867235" y="140.682573" style="stroke: #000000; stroke-width: 0.6"/>
      </g>
     </g>
    </g>
    <g id="xtick_29">
     <g id="line2d_44">
      <g>
       <use xlink:href="#m0a2b372496" x="306.825256" y="140.682573" style="stroke: #000000; stroke-width: 0.6"/>
      </g>
     </g>
    </g>
    <g id="xtick_30">
     <g id="line2d_45">
      <g>
       <use xlink:href="#m0a2b372496" x="313.773636" y="140.682573" style="stroke: #000000; stroke-width: 0.6"/>
      </g>
     </g>
    </g>
    <g id="xtick_31">
     <g id="line2d_46">
      <g>
       <use xlink:href="#m0a2b372496" x="319.450877" y="140.682573" style="stroke: #000000; stroke-width: 0.6"/>
      </g>
     </g>
    </g>
    <g id="xtick_32">
     <g id="line2d_47">
      <g>
       <use xlink:href="#m0a2b372496" x="324.250915" y="140.682573" style="stroke: #000000; stroke-width: 0.6"/>
      </g>
     </g>
    </g>
    <g id="xtick_33">
     <g id="line2d_48">
      <g>
       <use xlink:href="#m0a2b372496" x="328.408897" y="140.682573" style="stroke: #000000; stroke-width: 0.6"/>
      </g>
     </g>
    </g>
    <g id="xtick_34">
     <g id="line2d_49">
      <g>
       <use xlink:href="#m0a2b372496" x="332.076497" y="140.682573" style="stroke: #000000; stroke-width: 0.6"/>
      </g>
     </g>
    </g>
    <g id="text_18">
     <!-- Validation size, n -->
     <g transform="translate(244.067109 164.53601) scale(0.08 -0.08)">
      <use xlink:href="#DejaVuSans-56"/>
      <use xlink:href="#DejaVuSans-61" x="60.658203"/>
      <use xlink:href="#DejaVuSans-6c" x="121.9375"/>
      <use xlink:href="#DejaVuSans-69" x="149.720703"/>
      <use xlink:href="#DejaVuSans-64" x="177.503906"/>
      <use xlink:href="#DejaVuSans-61" x="240.980469"/>
      <use xlink:href="#DejaVuSans-74" x="302.259766"/>
      <use xlink:href="#DejaVuSans-69" x="341.46875"/>
      <use xlink:href="#DejaVuSans-6f" x="369.251953"/>
      <use xlink:href="#DejaVuSans-6e" x="430.433594"/>
      <use xlink:href="#DejaVuSans-20" x="493.8125"/>
      <use xlink:href="#DejaVuSans-73" x="525.599609"/>
      <use xlink:href="#DejaVuSans-69" x="577.699219"/>
      <use xlink:href="#DejaVuSans-7a" x="605.482422"/>
      <use xlink:href="#DejaVuSans-65" x="657.972656"/>
      <use xlink:href="#DejaVuSans-2c" x="719.496094"/>
      <use xlink:href="#DejaVuSans-20" x="751.283203"/>
      <use xlink:href="#DejaVuSans-6e" x="783.070312"/>
     </g>
    </g>
   </g>
   <g id="matplotlib.axis_4">
    <g id="ytick_7">
     <g id="line2d_50">
      <path d="M 214.747362 135.110248
L 341.100607 135.110248
" clip-path="url(#pf61c28da5b)" style="fill: none; stroke: #d9d9d9; stroke-opacity: 0.7; stroke-width: 0.45; stroke-linecap: square"/>
     </g>
     <g id="line2d_51">
      <g>
       <use xlink:href="#mbb61af0f07" x="214.747362" y="135.110248" style="stroke: #000000; stroke-width: 0.8"/>
      </g>
     </g>
     <g id="text_19">
      <!-- −0.0150 -->
      <g transform="translate(177.388143 137.769701) scale(0.07 -0.07)">
       <defs>
        <path id="DejaVuSans-2212" d="M 678 2272
L 4684 2272
L 4684 1741
L 678 1741
L 678 2272
z
" transform="scale(0.015625)"/>
       </defs>
       <use xlink:href="#DejaVuSans-2212"/>
       <use xlink:href="#DejaVuSans-30" x="83.789062"/>
       <use xlink:href="#DejaVuSans-2e" x="147.412109"/>
       <use xlink:href="#DejaVuSans-30" x="179.199219"/>
       <use xlink:href="#DejaVuSans-31" x="242.822266"/>
       <use xlink:href="#DejaVuSans-35" x="306.445312"/>
       <use xlink:href="#DejaVuSans-30" x="370.068359"/>
      </g>
     </g>
    </g>
    <g id="ytick_8">
     <g id="line2d_52">
      <path d="M 214.747362 118.448085
L 341.100607 118.448085
" clip-path="url(#pf61c28da5b)" style="fill: none; stroke: #d9d9d9; stroke-opacity: 0.7; stroke-width: 0.45; stroke-linecap: square"/>
     </g>
     <g id="line2d_53">
      <g>
       <use xlink:href="#mbb61af0f07" x="214.747362" y="118.448085" style="stroke: #000000; stroke-width: 0.8"/>
      </g>
     </g>
     <g id="text_20">
      <!-- −0.0125 -->
      <g transform="translate(177.388143 121.107538) scale(0.07 -0.07)">
       <use xlink:href="#DejaVuSans-2212"/>
       <use xlink:href="#DejaVuSans-30" x="83.789062"/>
       <use xlink:href="#DejaVuSans-2e" x="147.412109"/>
       <use xlink:href="#DejaVuSans-30" x="179.199219"/>
       <use xlink:href="#DejaVuSans-31" x="242.822266"/>
       <use xlink:href="#DejaVuSans-32" x="306.445312"/>
       <use xlink:href="#DejaVuSans-35" x="370.068359"/>
      </g>
     </g>
    </g>
    <g id="ytick_9">
     <g id="line2d_54">
      <path d="M 214.747362 101.785922
L 341.100607 101.785922
" clip-path="url(#pf61c28da5b)" style="fill: none; stroke: #d9d9d9; stroke-opacity: 0.7; stroke-width: 0.45; stroke-linecap: square"/>
     </g>
     <g id="line2d_55">
      <g>
       <use xlink:href="#mbb61af0f07" x="214.747362" y="101.785922" style="stroke: #000000; stroke-width: 0.8"/>
      </g>
     </g>
     <g id="text_21">
      <!-- −0.0100 -->
      <g transform="translate(177.388143 104.445375) scale(0.07 -0.07)">
       <use xlink:href="#DejaVuSans-2212"/>
       <use xlink:href="#DejaVuSans-30" x="83.789062"/>
       <use xlink:href="#DejaVuSans-2e" x="147.412109"/>
       <use xlink:href="#DejaVuSans-30" x="179.199219"/>
       <use xlink:href="#DejaVuSans-31" x="242.822266"/>
       <use xlink:href="#DejaVuSans-30" x="306.445312"/>
       <use xlink:href="#DejaVuSans-30" x="370.068359"/>
      </g>
     </g>
    </g>
    <g id="ytick_10">
     <g id="line2d_56">
      <path d="M 214.747362 85.123759
L 341.100607 85.123759
" clip-path="url(#pf61c28da5b)" style="fill: none; stroke: #d9d9d9; stroke-opacity: 0.7; stroke-width: 0.45; stroke-linecap: square"/>
     </g>
     <g id="line2d_57">
      <g>
       <use xlink:href="#mbb61af0f07" x="214.747362" y="85.123759" style="stroke: #000000; stroke-width: 0.8"/>
      </g>
     </g>
     <g id="text_22">
      <!-- −0.0075 -->
      <g transform="translate(177.388143 87.783212) scale(0.07 -0.07)">
       <defs>
        <path id="DejaVuSans-37" d="M 525 4666
L 3525 4666
L 3525 4397
L 1831 0
L 1172 0
L 2766 4134
L 525 4134
L 525 4666
z
" transform="scale(0.015625)"/>
       </defs>
       <use xlink:href="#DejaVuSans-2212"/>
       <use xlink:href="#DejaVuSans-30" x="83.789062"/>
       <use xlink:href="#DejaVuSans-2e" x="147.412109"/>
       <use xlink:href="#DejaVuSans-30" x="179.199219"/>
       <use xlink:href="#DejaVuSans-30" x="242.822266"/>
       <use xlink:href="#DejaVuSans-37" x="306.445312"/>
       <use xlink:href="#DejaVuSans-35" x="370.068359"/>
      </g>
     </g>
    </g>
    <g id="ytick_11">
     <g id="line2d_58">
      <path d="M 214.747362 68.461596
L 341.100607 68.461596
" clip-path="url(#pf61c28da5b)" style="fill: none; stroke: #d9d9d9; stroke-opacity: 0.7; stroke-width: 0.45; stroke-linecap: square"/>
     </g>
     <g id="line2d_59">
      <g>
       <use xlink:href="#mbb61af0f07" x="214.747362" y="68.461596" style="stroke: #000000; stroke-width: 0.8"/>
      </g>
     </g>
     <g id="text_23">
      <!-- −0.0050 -->
      <g transform="translate(177.388143 71.121049) scale(0.07 -0.07)">
       <use xlink:href="#DejaVuSans-2212"/>
       <use xlink:href="#DejaVuSans-30" x="83.789062"/>
       <use xlink:href="#DejaVuSans-2e" x="147.412109"/>
       <use xlink:href="#DejaVuSans-30" x="179.199219"/>
       <use xlink:href="#DejaVuSans-30" x="242.822266"/>
       <use xlink:href="#DejaVuSans-35" x="306.445312"/>
       <use xlink:href="#DejaVuSans-30" x="370.068359"/>
      </g>
     </g>
    </g>
    <g id="ytick_12">
     <g id="line2d_60">
      <path d="M 214.747362 51.799433
L 341.100607 51.799433
" clip-path="url(#pf61c28da5b)" style="fill: none; stroke: #d9d9d9; stroke-opacity: 0.7; stroke-width: 0.45; stroke-linecap: square"/>
     </g>
     <g id="line2d_61">
      <g>
       <use xlink:href="#mbb61af0f07" x="214.747362" y="51.799433" style="stroke: #000000; stroke-width: 0.8"/>
      </g>
     </g>
     <g id="text_24">
      <!-- −0.0025 -->
      <g transform="translate(177.388143 54.458886) scale(0.07 -0.07)">
       <use xlink:href="#DejaVuSans-2212"/>
       <use xlink:href="#DejaVuSans-30" x="83.789062"/>
       <use xlink:href="#DejaVuSans-2e" x="147.412109"/>
       <use xlink:href="#DejaVuSans-30" x="179.199219"/>
       <use xlink:href="#DejaVuSans-30" x="242.822266"/>
       <use xlink:href="#DejaVuSans-32" x="306.445312"/>
       <use xlink:href="#DejaVuSans-35" x="370.068359"/>
      </g>
     </g>
    </g>
    <g id="ytick_13">
     <g id="line2d_62">
      <path d="M 214.747362 35.13727
L 341.100607 35.13727
" clip-path="url(#pf61c28da5b)" style="fill: none; stroke: #d9d9d9; stroke-opacity: 0.7; stroke-width: 0.45; stroke-linecap: square"/>
     </g>
     <g id="line2d_63">
      <g>
       <use xlink:href="#mbb61af0f07" x="214.747362" y="35.13727" style="stroke: #000000; stroke-width: 0.8"/>
      </g>
     </g>
     <g id="text_25">
      <!-- 0.0000 -->
      <g transform="translate(183.253925 37.796723) scale(0.07 -0.07)">
       <use xlink:href="#DejaVuSans-30"/>
       <use xlink:href="#DejaVuSans-2e" x="63.623047"/>
       <use xlink:href="#DejaVuSans-30" x="95.410156"/>
       <use xlink:href="#DejaVuSans-30" x="159.033203"/>
       <use xlink:href="#DejaVuSans-30" x="222.65625"/>
       <use xlink:href="#DejaVuSans-30" x="286.279297"/>
      </g>
     </g>
    </g>
    <g id="ytick_14">
     <g id="line2d_64">
      <path d="M 214.747362 18.475107
L 341.100607 18.475107
" clip-path="url(#pf61c28da5b)" style="fill: none; stroke: #d9d9d9; stroke-opacity: 0.7; stroke-width: 0.45; stroke-linecap: square"/>
     </g>
     <g id="line2d_65">
      <g>
       <use xlink:href="#mbb61af0f07" x="214.747362" y="18.475107" style="stroke: #000000; stroke-width: 0.8"/>
      </g>
     </g>
     <g id="text_26">
      <!-- 0.0025 -->
      <g transform="translate(183.253925 21.13456) scale(0.07 -0.07)">
       <use xlink:href="#DejaVuSans-30"/>
       <use xlink:href="#DejaVuSans-2e" x="63.623047"/>
       <use xlink:href="#DejaVuSans-30" x="95.410156"/>
       <use xlink:href="#DejaVuSans-30" x="159.033203"/>
       <use xlink:href="#DejaVuSans-32" x="222.65625"/>
       <use xlink:href="#DejaVuSans-35" x="286.279297"/>
      </g>
     </g>
    </g>
    <g id="text_27">
     <!-- Observed minus predicted -->
     <g transform="translate(171.724393 131.183828) rotate(-90) scale(0.08 -0.08)">
      <defs>
       <path id="DejaVuSans-4f" d="M 2522 4238
Q 1834 4238 1429 3725
Q 1025 3213 1025 2328
Q 1025 1447 1429 934
Q 1834 422 2522 422
Q 3209 422 3611 934
Q 4013 1447 4013 2328
Q 4013 3213 3611 3725
Q 3209 4238 2522 4238
z
M 2522 4750
Q 3503 4750 4090 4092
Q 4678 3434 4678 2328
Q 4678 1225 4090 567
Q 3503 -91 2522 -91
Q 1538 -91 948 565
Q 359 1222 359 2328
Q 359 3434 948 4092
Q 1538 4750 2522 4750
z
" transform="scale(0.015625)"/>
       <path id="DejaVuSans-76" d="M 191 3500
L 800 3500
L 1894 563
L 2988 3500
L 3597 3500
L 2284 0
L 1503 0
L 191 3500
z
" transform="scale(0.015625)"/>
       <path id="DejaVuSans-75" d="M 544 1381
L 544 3500
L 1119 3500
L 1119 1403
Q 1119 906 1312 657
Q 1506 409 1894 409
Q 2359 409 2629 706
Q 2900 1003 2900 1516
L 2900 3500
L 3475 3500
L 3475 0
L 2900 0
L 2900 538
Q 2691 219 2414 64
Q 2138 -91 1772 -91
Q 1169 -91 856 284
Q 544 659 544 1381
z
M 1991 3584
L 1991 3584
z
" transform="scale(0.015625)"/>
       <path id="DejaVuSans-70" d="M 1159 525
L 1159 -1331
L 581 -1331
L 581 3500
L 1159 3500
L 1159 2969
Q 1341 3281 1617 3432
Q 1894 3584 2278 3584
Q 2916 3584 3314 3078
Q 3713 2572 3713 1747
Q 3713 922 3314 415
Q 2916 -91 2278 -91
Q 1894 -91 1617 61
Q 1341 213 1159 525
z
M 3116 1747
Q 3116 2381 2855 2742
Q 2594 3103 2138 3103
Q 1681 3103 1420 2742
Q 1159 2381 1159 1747
Q 1159 1113 1420 752
Q 1681 391 2138 391
Q 2594 391 2855 752
Q 3116 1113 3116 1747
z
" transform="scale(0.015625)"/>
      </defs>
      <use xlink:href="#DejaVuSans-4f"/>
      <use xlink:href="#DejaVuSans-62" x="78.710938"/>
      <use xlink:href="#DejaVuSans-73" x="142.1875"/>
      <use xlink:href="#DejaVuSans-65" x="194.287109"/>
      <use xlink:href="#DejaVuSans-72" x="255.810547"/>
      <use xlink:href="#DejaVuSans-76" x="296.923828"/>
      <use xlink:href="#DejaVuSans-65" x="356.103516"/>
      <use xlink:href="#DejaVuSans-64" x="417.626953"/>
      <use xlink:href="#DejaVuSans-20" x="481.103516"/>
      <use xlink:href="#DejaVuSans-6d" x="512.890625"/>
      <use xlink:href="#DejaVuSans-69" x="610.302734"/>
      <use xlink:href="#DejaVuSans-6e" x="638.085938"/>
      <use xlink:href="#DejaVuSans-75" x="701.464844"/>
      <use xlink:href="#DejaVuSans-73" x="764.84375"/>
      <use xlink:href="#DejaVuSans-20" x="816.943359"/>
      <use xlink:href="#DejaVuSans-70" x="848.730469"/>
      <use xlink:href="#DejaVuSans-72" x="912.207031"/>
      <use xlink:href="#DejaVuSans-65" x="951.070312"/>
      <use xlink:href="#DejaVuSans-64" x="1012.59375"/>
      <use xlink:href="#DejaVuSans-69" x="1076.070312"/>
      <use xlink:href="#DejaVuSans-63" x="1103.853516"/>
      <use xlink:href="#DejaVuSans-74" x="1158.833984"/>
      <use xlink:href="#DejaVuSans-65" x="1198.042969"/>
      <use xlink:href="#DejaVuSans-64" x="1259.566406"/>
     </g>
    </g>
   </g>
   <g id="line2d_66">
    <path d="M 220.490691 35.13727
L 242.074332 35.13727
L 263.657974 35.13727
L 285.241615 21.513549
L 313.773636 35.13727
L 335.357277 35.13727
" clip-path="url(#pf61c28da5b)" style="fill: none; stroke: #0072b2; stroke-width: 1.4; stroke-linecap: square"/>
    <defs>
     <path id="m242db3acbe" d="M 0 1.75
C 0.464105 1.75 0.909265 1.565609 1.237437 1.237437
C 1.565609 0.909265 1.75 0.464105 1.75 0
C 1.75 -0.464105 1.565609 -0.909265 1.237437 -1.237437
C 0.909265 -1.565609 0.464105 -1.75 0 -1.75
C -0.464105 -1.75 -0.909265 -1.565609 -1.237437 -1.237437
C -1.565609 -0.909265 -1.75 -0.464105 -1.75 0
C -1.75 0.464105 -1.565609 0.909265 -1.237437 1.237437
C -0.909265 1.565609 -0.464105 1.75 0 1.75
z
" style="stroke: #0072b2"/>
    </defs>
    <g clip-path="url(#pf61c28da5b)">
     <use xlink:href="#m242db3acbe" x="220.490691" y="35.13727" style="fill: #0072b2; stroke: #0072b2"/>
     <use xlink:href="#m242db3acbe" x="242.074332" y="35.13727" style="fill: #0072b2; stroke: #0072b2"/>
     <use xlink:href="#m242db3acbe" x="263.657974" y="35.13727" style="fill: #0072b2; stroke: #0072b2"/>
     <use xlink:href="#m242db3acbe" x="285.241615" y="21.513549" style="fill: #0072b2; stroke: #0072b2"/>
     <use xlink:href="#m242db3acbe" x="313.773636" y="35.13727" style="fill: #0072b2; stroke: #0072b2"/>
     <use xlink:href="#m242db3acbe" x="335.357277" y="35.13727" style="fill: #0072b2; stroke: #0072b2"/>
    </g>
   </g>
   <g id="line2d_67">
    <path d="M 220.490691 35.13727
L 242.074332 35.13727
L 263.657974 35.13727
L 285.241615 135.007857
L 313.773636 35.13727
L 335.357277 35.13727
" clip-path="url(#pf61c28da5b)" style="fill: none; stroke: #d55e00; stroke-width: 1.4; stroke-linecap: square"/>
    <defs>
     <path id="m82d1c6fd8f" d="M -1.75 1.75
L 1.75 1.75
L 1.75 -1.75
L -1.75 -1.75
z
" style="stroke: #d55e00; stroke-linejoin: miter"/>
    </defs>
    <g clip-path="url(#pf61c28da5b)">
     <use xlink:href="#m82d1c6fd8f" x="220.490691" y="35.13727" style="fill: #d55e00; stroke: #d55e00; stroke-linejoin: miter"/>
     <use xlink:href="#m82d1c6fd8f" x="242.074332" y="35.13727" style="fill: #d55e00; stroke: #d55e00; stroke-linejoin: miter"/>
     <use xlink:href="#m82d1c6fd8f" x="263.657974" y="35.13727" style="fill: #d55e00; stroke: #d55e00; stroke-linejoin: miter"/>
     <use xlink:href="#m82d1c6fd8f" x="285.241615" y="135.007857" style="fill: #d55e00; stroke: #d55e00; stroke-linejoin: miter"/>
     <use xlink:href="#m82d1c6fd8f" x="313.773636" y="35.13727" style="fill: #d55e00; stroke: #d55e00; stroke-linejoin: miter"/>
     <use xlink:href="#m82d1c6fd8f" x="335.357277" y="35.13727" style="fill: #d55e00; stroke: #d55e00; stroke-linejoin: miter"/>
    </g>
   </g>
   <g id="line2d_68">
    <path d="M 220.490691 35.13727
L 242.074332 35.13727
L 263.657974 35.13727
L 285.241615 102.255754
L 313.773636 35.13727
L 335.357277 35.13727
" clip-path="url(#pf61c28da5b)" style="fill: none; stroke: #009e73; stroke-width: 1.4; stroke-linecap: square"/>
    <defs>
     <path id="m1a1a5f089c" d="M 0 -1.75
L -1.75 1.75
L 1.75 1.75
z
" style="stroke: #009e73; stroke-linejoin: miter"/>
    </defs>
    <g clip-path="url(#pf61c28da5b)">
     <use xlink:href="#m1a1a5f089c" x="220.490691" y="35.13727" style="fill: #009e73; stroke: #009e73; stroke-linejoin: miter"/>
     <use xlink:href="#m1a1a5f089c" x="242.074332" y="35.13727" style="fill: #009e73; stroke: #009e73; stroke-linejoin: miter"/>
     <use xlink:href="#m1a1a5f089c" x="263.657974" y="35.13727" style="fill: #009e73; stroke: #009e73; stroke-linejoin: miter"/>
     <use xlink:href="#m1a1a5f089c" x="285.241615" y="102.255754" style="fill: #009e73; stroke: #009e73; stroke-linejoin: miter"/>
     <use xlink:href="#m1a1a5f089c" x="313.773636" y="35.13727" style="fill: #009e73; stroke: #009e73; stroke-linejoin: miter"/>
     <use xlink:href="#m1a1a5f089c" x="335.357277" y="35.13727" style="fill: #009e73; stroke: #009e73; stroke-linejoin: miter"/>
    </g>
   </g>
   <g id="line2d_69">
    <path d="M 214.747362 35.13727
L 341.100607 35.13727
" clip-path="url(#pf61c28da5b)" style="fill: none; stroke-dasharray: 0.8,1.32; stroke-dashoffset: 0; stroke: #666666; stroke-width: 0.8"/>
   </g>
   <g id="patch_6">
    <path d="M 214.747362 140.682573
L 214.747362 15.838834
" style="fill: none; stroke: #000000; stroke-width: 0.7; stroke-linejoin: miter; stroke-linecap: square"/>
   </g>
   <g id="patch_7">
    <path d="M 214.747362 140.682573
L 341.100607 140.682573
" style="fill: none; stroke: #000000; stroke-width: 0.7; stroke-linejoin: miter; stroke-linecap: square"/>
   </g>
   <g id="text_28">
    <!-- B -->
    <g transform="translate(194.530843 13.449772) scale(0.1 -0.1)">
     <defs>
      <path id="DejaVuSans-Bold-42" d="M 2456 2859
Q 2741 2859 2887 2984
Q 3034 3109 3034 3353
Q 3034 3594 2887 3720
Q 2741 3847 2456 3847
L 1791 3847
L 1791 2859
L 2456 2859
z
M 2497 819
Q 2859 819 3042 972
Q 3225 1125 3225 1434
Q 3225 1738 3044 1889
Q 2863 2041 2497 2041
L 1791 2041
L 1791 819
L 2497 819
z
M 3616 2497
Q 4003 2384 4215 2081
Q 4428 1778 4428 1338
Q 4428 663 3972 331
Q 3516 0 2584 0
L 588 0
L 588 4666
L 2394 4666
Q 3366 4666 3802 4372
Q 4238 4078 4238 3431
Q 4238 3091 4078 2852
Q 3919 2613 3616 2497
z
" transform="scale(0.015625)"/>
     </defs>
     <use xlink:href="#DejaVuSans-Bold-42"/>
    </g>
   </g>
   <g id="text_29">
    <!-- Prediction error -->
    <g transform="translate(243.248672 9.838834) scale(0.09 -0.09)">
     <defs>
      <path id="DejaVuSans-50" d="M 1259 4147
L 1259 2394
L 2053 2394
Q 2494 2394 2734 2622
Q 2975 2850 2975 3272
Q 2975 3691 2734 3919
Q 2494 4147 2053 4147
L 1259 4147
z
M 628 4666
L 2053 4666
Q 2838 4666 3239 4311
Q 3641 3956 3641 3272
Q 3641 2581 3239 2228
Q 2838 1875 2053 1875
L 1259 1875
L 1259 0
L 628 0
L 628 4666
z
" transform="scale(0.015625)"/>
     </defs>
     <use xlink:href="#DejaVuSans-50"/>
     <use xlink:href="#DejaVuSans-72" x="58.552734"/>
     <use xlink:href="#DejaVuSans-65" x="97.416016"/>
     <use xlink:href="#DejaVuSans-64" x="158.939453"/>
     <use xlink:href="#DejaVuSans-69" x="222.416016"/>
     <use xlink:href="#DejaVuSans-63" x="250.199219"/>
     <use xlink:href="#DejaVuSans-74" x="305.179688"/>
     <use xlink:href="#DejaVuSans-69" x="344.388672"/>
     <use xlink:href="#DejaVuSans-6f" x="372.171875"/>
     <use xlink:href="#DejaVuSans-6e" x="433.353516"/>
     <use xlink:href="#DejaVuSans-20" x="496.732422"/>
     <use xlink:href="#DejaVuSans-65" x="528.519531"/>
     <use xlink:href="#DejaVuSans-72" x="590.042969"/>
     <use xlink:href="#DejaVuSans-72" x="629.40625"/>
     <use xlink:href="#DejaVuSans-6f" x="668.269531"/>
     <use xlink:href="#DejaVuSans-72" x="729.451172"/>
    </g>
   </g>
  </g>
  <g id="axes_3">
   <g id="patch_8">
    <path d="M 381.846515 140.682573
L 508.19976 140.682573
L 508.19976 15.838834
L 381.846515 15.838834
z
" style="fill: #ffffff"/>
   </g>
   <g id="PathCollection_7">
    <defs>
     <path id="C0_0_8510a8b093" d="M 0 1.936492
C 0.513564 1.936492 1.006162 1.732451 1.369306 1.369306
C 1.732451 1.006162 1.936492 0.513564 1.936492 -0
C 1.936492 -0.513564 1.732451 -1.006162 1.369306 -1.369306
C 1.006162 -1.732451 0.513564 -1.936492 0 -1.936492
C -0.513564 -1.936492 -1.006162 -1.732451 -1.369306 -1.369306
C -1.732451 -1.006162 -1.936492 -0.513564 -1.936492 0
C -1.936492 0.513564 -1.732451 1.006162 -1.369306 1.369306
C -1.006162 1.732451 -0.513564 1.936492 0 1.936492
z
"/>
    </defs>
    <g clip-path="url(#pf51a479068)">
     <use xlink:href="#C0_0_8510a8b093" x="390.461509" y="132.885599" style="fill: #0072b2; fill-opacity: 0.45"/>
    </g>
    <g clip-path="url(#pf51a479068)">
     <use xlink:href="#C0_0_8510a8b093" x="436.408144" y="132.885599" style="fill: #0072b2; fill-opacity: 0.45"/>
    </g>
    <g clip-path="url(#pf51a479068)">
     <use xlink:href="#C0_0_8510a8b093" x="493.841437" y="132.885599" style="fill: #0072b2; fill-opacity: 0.45"/>
    </g>
   </g>
   <g id="PathCollection_8">
    <defs>
     <path id="C1_0_72e00decf6" d="M 0 1.936492
C 0.513564 1.936492 1.006162 1.732451 1.369306 1.369306
C 1.732451 1.006162 1.936492 0.513564 1.936492 -0
C 1.936492 -0.513564 1.732451 -1.006162 1.369306 -1.369306
C 1.006162 -1.732451 0.513564 -1.936492 0 -1.936492
C -0.513564 -1.936492 -1.006162 -1.732451 -1.369306 -1.369306
C -1.732451 -1.006162 -1.936492 -0.513564 -1.936492 0
C -1.936492 0.513564 -1.732451 1.006162 -1.369306 1.369306
C -1.006162 1.732451 -0.513564 1.936492 0 1.936492
z
"/>
    </defs>
    <g clip-path="url(#pf51a479068)">
     <use xlink:href="#C1_0_72e00decf6" x="391.610175" y="132.885599" style="fill: #0072b2; fill-opacity: 0.55"/>
    </g>
    <g clip-path="url(#pf51a479068)">
     <use xlink:href="#C1_0_72e00decf6" x="437.55681" y="132.885599" style="fill: #0072b2; fill-opacity: 0.55"/>
    </g>
    <g clip-path="url(#pf51a479068)">
     <use xlink:href="#C1_0_72e00decf6" x="494.990103" y="132.885599" style="fill: #0072b2; fill-opacity: 0.55"/>
    </g>
   </g>
   <g id="PathCollection_9">
    <defs>
     <path id="C2_0_504d948b8d" d="M 0 1.936492
C 0.513564 1.936492 1.006162 1.732451 1.369306 1.369306
C 1.732451 1.006162 1.936492 0.513564 1.936492 -0
C 1.936492 -0.513564 1.732451 -1.006162 1.369306 -1.369306
C 1.006162 -1.732451 0.513564 -1.936492 0 -1.936492
C -0.513564 -1.936492 -1.006162 -1.732451 -1.369306 -1.369306
C -1.732451 -1.006162 -1.936492 -0.513564 -1.936492 0
C -1.936492 0.513564 -1.732451 1.006162 -1.369306 1.369306
C -1.006162 1.732451 -0.513564 1.936492 0 1.936492
z
"/>
    </defs>
    <g clip-path="url(#pf51a479068)">
     <use xlink:href="#C2_0_504d948b8d" x="392.758841" y="132.885599" style="fill: #0072b2; fill-opacity: 0.65"/>
    </g>
    <g clip-path="url(#pf51a479068)">
     <use xlink:href="#C2_0_504d948b8d" x="438.705475" y="132.885599" style="fill: #0072b2; fill-opacity: 0.65"/>
    </g>
    <g clip-path="url(#pf51a479068)">
     <use xlink:href="#C2_0_504d948b8d" x="496.138768" y="132.885599" style="fill: #0072b2; fill-opacity: 0.65"/>
    </g>
   </g>
   <g id="PathCollection_10">
    <defs>
     <path id="C3_0_1873bf6b2e" d="M 0 1.936492
C 0.513564 1.936492 1.006162 1.732451 1.369306 1.369306
C 1.732451 1.006162 1.936492 0.513564 1.936492 -0
C 1.936492 -0.513564 1.732451 -1.006162 1.369306 -1.369306
C 1.006162 -1.732451 0.513564 -1.936492 0 -1.936492
C -0.513564 -1.936492 -1.006162 -1.732451 -1.369306 -1.369306
C -1.732451 -1.006162 -1.936492 -0.513564 -1.936492 0
C -1.936492 0.513564 -1.732451 1.006162 -1.369306 1.369306
C -1.006162 1.732451 -0.513564 1.936492 0 1.936492
z
"/>
    </defs>
    <g clip-path="url(#pf51a479068)">
     <use xlink:href="#C3_0_1873bf6b2e" x="393.907507" y="132.885599" style="fill: #0072b2; fill-opacity: 0.75"/>
    </g>
    <g clip-path="url(#pf51a479068)">
     <use xlink:href="#C3_0_1873bf6b2e" x="439.854141" y="132.885599" style="fill: #0072b2; fill-opacity: 0.75"/>
    </g>
    <g clip-path="url(#pf51a479068)">
     <use xlink:href="#C3_0_1873bf6b2e" x="497.287434" y="132.885599" style="fill: #0072b2; fill-opacity: 0.75"/>
    </g>
   </g>
   <g id="PathCollection_11">
    <defs>
     <path id="C4_0_f1ef4011ea" d="M 0 1.936492
C 0.513564 1.936492 1.006162 1.732451 1.369306 1.369306
C 1.732451 1.006162 1.936492 0.513564 1.936492 -0
C 1.936492 -0.513564 1.732451 -1.006162 1.369306 -1.369306
C 1.006162 -1.732451 0.513564 -1.936492 0 -1.936492
C -0.513564 -1.936492 -1.006162 -1.732451 -1.369306 -1.369306
C -1.732451 -1.006162 -1.936492 -0.513564 -1.936492 0
C -1.936492 0.513564 -1.732451 1.006162 -1.369306 1.369306
C -1.006162 1.732451 -0.513564 1.936492 0 1.936492
z
"/>
    </defs>
    <g clip-path="url(#pf51a479068)">
     <use xlink:href="#C4_0_f1ef4011ea" x="395.056173" y="132.885599" style="fill: #0072b2; fill-opacity: 0.85"/>
    </g>
    <g clip-path="url(#pf51a479068)">
     <use xlink:href="#C4_0_f1ef4011ea" x="441.002807" y="132.885599" style="fill: #0072b2; fill-opacity: 0.85"/>
    </g>
    <g clip-path="url(#pf51a479068)">
     <use xlink:href="#C4_0_f1ef4011ea" x="498.4361" y="132.885599" style="fill: #0072b2; fill-opacity: 0.85"/>
    </g>
   </g>
   <g id="PathCollection_12">
    <defs>
     <path id="C5_0_5f32049094" d="M 0 1.936492
C 0.513564 1.936492 1.006162 1.732451 1.369306 1.369306
C 1.732451 1.006162 1.936492 0.513564 1.936492 -0
C 1.936492 -0.513564 1.732451 -1.006162 1.369306 -1.369306
C 1.006162 -1.732451 0.513564 -1.936492 0 -1.936492
C -0.513564 -1.936492 -1.006162 -1.732451 -1.369306 -1.369306
C -1.732451 -1.006162 -1.936492 -0.513564 -1.936492 0
C -1.936492 0.513564 -1.732451 1.006162 -1.369306 1.369306
C -1.006162 1.732451 -0.513564 1.936492 0 1.936492
z
"/>
    </defs>
    <g clip-path="url(#pf51a479068)">
     <use xlink:href="#C5_0_5f32049094" x="396.204839" y="132.885599" style="fill: #0072b2; fill-opacity: 0.95"/>
    </g>
    <g clip-path="url(#pf51a479068)">
     <use xlink:href="#C5_0_5f32049094" x="442.151473" y="132.885599" style="fill: #0072b2; fill-opacity: 0.95"/>
    </g>
    <g clip-path="url(#pf51a479068)">
     <use xlink:href="#C5_0_5f32049094" x="499.584766" y="132.885599" style="fill: #0072b2; fill-opacity: 0.95"/>
    </g>
   </g>
   <g id="matplotlib.axis_5">
    <g id="xtick_35">
     <g id="line2d_70">
      <g>
       <use xlink:href="#m7daf63e752" x="381.846515" y="140.682573" style="stroke: #000000; stroke-width: 0.8"/>
      </g>
     </g>
     <g id="text_30">
      <!-- 0.00 -->
      <g transform="translate(374.053547 153.001479) scale(0.07 -0.07)">
       <use xlink:href="#DejaVuSans-30"/>
       <use xlink:href="#DejaVuSans-2e" x="63.623047"/>
       <use xlink:href="#DejaVuSans-30" x="95.410156"/>
       <use xlink:href="#DejaVuSans-30" x="159.033203"/>
      </g>
     </g>
    </g>
    <g id="xtick_36">
     <g id="line2d_71">
      <g>
       <use xlink:href="#m7daf63e752" x="404.819832" y="140.682573" style="stroke: #000000; stroke-width: 0.8"/>
      </g>
     </g>
     <g id="text_31">
      <!-- 0.02 -->
      <g transform="translate(397.026864 153.001479) scale(0.07 -0.07)">
       <use xlink:href="#DejaVuSans-30"/>
       <use xlink:href="#DejaVuSans-2e" x="63.623047"/>
       <use xlink:href="#DejaVuSans-30" x="95.410156"/>
       <use xlink:href="#DejaVuSans-32" x="159.033203"/>
      </g>
     </g>
    </g>
    <g id="xtick_37">
     <g id="line2d_72">
      <g>
       <use xlink:href="#m7daf63e752" x="427.79315" y="140.682573" style="stroke: #000000; stroke-width: 0.8"/>
      </g>
     </g>
     <g id="text_32">
      <!-- 0.04 -->
      <g transform="translate(420.000181 153.001479) scale(0.07 -0.07)">
       <use xlink:href="#DejaVuSans-30"/>
       <use xlink:href="#DejaVuSans-2e" x="63.623047"/>
       <use xlink:href="#DejaVuSans-30" x="95.410156"/>
       <use xlink:href="#DejaVuSans-34" x="159.033203"/>
      </g>
     </g>
    </g>
    <g id="xtick_38">
     <g id="line2d_73">
      <g>
       <use xlink:href="#m7daf63e752" x="450.766467" y="140.682573" style="stroke: #000000; stroke-width: 0.8"/>
      </g>
     </g>
     <g id="text_33">
      <!-- 0.06 -->
      <g transform="translate(442.973498 153.001479) scale(0.07 -0.07)">
       <use xlink:href="#DejaVuSans-30"/>
       <use xlink:href="#DejaVuSans-2e" x="63.623047"/>
       <use xlink:href="#DejaVuSans-30" x="95.410156"/>
       <use xlink:href="#DejaVuSans-36" x="159.033203"/>
      </g>
     </g>
    </g>
    <g id="xtick_39">
     <g id="line2d_74">
      <g>
       <use xlink:href="#m7daf63e752" x="473.739784" y="140.682573" style="stroke: #000000; stroke-width: 0.8"/>
      </g>
     </g>
     <g id="text_34">
      <!-- 0.08 -->
      <g transform="translate(465.946815 153.001479) scale(0.07 -0.07)">
       <use xlink:href="#DejaVuSans-30"/>
       <use xlink:href="#DejaVuSans-2e" x="63.623047"/>
       <use xlink:href="#DejaVuSans-30" x="95.410156"/>
       <use xlink:href="#DejaVuSans-38" x="159.033203"/>
      </g>
     </g>
    </g>
    <g id="xtick_40">
     <g id="line2d_75">
      <g>
       <use xlink:href="#m7daf63e752" x="496.713101" y="140.682573" style="stroke: #000000; stroke-width: 0.8"/>
      </g>
     </g>
     <g id="text_35">
      <!-- 0.10 -->
      <g transform="translate(488.920133 153.001479) scale(0.07 -0.07)">
       <use xlink:href="#DejaVuSans-30"/>
       <use xlink:href="#DejaVuSans-2e" x="63.623047"/>
       <use xlink:href="#DejaVuSans-31" x="95.410156"/>
       <use xlink:href="#DejaVuSans-30" x="159.033203"/>
      </g>
     </g>
    </g>
    <g id="text_36">
     <!-- Declared $\delta$ -->
     <g transform="translate(423.343138 164.53601) scale(0.08 -0.08)">
      <defs>
       <path id="DejaVuSans-44" d="M 1259 4147
L 1259 519
L 2022 519
Q 2988 519 3436 956
Q 3884 1394 3884 2338
Q 3884 3275 3436 3711
Q 2988 4147 2022 4147
L 1259 4147
z
M 628 4666
L 1925 4666
Q 3281 4666 3915 4102
Q 4550 3538 4550 2338
Q 4550 1131 3912 565
Q 3275 0 1925 0
L 628 0
L 628 4666
z
" transform="scale(0.015625)"/>
      </defs>
      <use xlink:href="#DejaVuSans-44" transform="translate(0 0.015625)"/>
      <use xlink:href="#DejaVuSans-65" transform="translate(77.001953 0.015625)"/>
      <use xlink:href="#DejaVuSans-63" transform="translate(138.525391 0.015625)"/>
      <use xlink:href="#DejaVuSans-6c" transform="translate(193.505859 0.015625)"/>
      <use xlink:href="#DejaVuSans-61" transform="translate(221.289062 0.015625)"/>
      <use xlink:href="#DejaVuSans-72" transform="translate(282.568359 0.015625)"/>
      <use xlink:href="#DejaVuSans-65" transform="translate(323.681641 0.015625)"/>
      <use xlink:href="#DejaVuSans-64" transform="translate(385.205078 0.015625)"/>
      <use xlink:href="#DejaVuSans-20" transform="translate(448.681641 0.015625)"/>
      <use xlink:href="#DejaVuSans-Oblique-3b4" transform="translate(480.46875 0.015625)"/>
     </g>
    </g>
   </g>
   <g id="matplotlib.axis_6">
    <g id="ytick_15">
     <g id="line2d_76">
      <path d="M 381.846515 140.682573
L 508.19976 140.682573
" clip-path="url(#pf51a479068)" style="fill: none; stroke: #d9d9d9; stroke-opacity: 0.7; stroke-width: 0.45; stroke-linecap: square"/>
     </g>
     <g id="line2d_77">
      <g>
       <use xlink:href="#mbb61af0f07" x="381.846515" y="140.682573" style="stroke: #000000; stroke-width: 0.8"/>
      </g>
     </g>
     <g id="text_37">
      <!-- 0.00 -->
      <g transform="translate(359.260578 143.342026) scale(0.07 -0.07)">
       <use xlink:href="#DejaVuSans-30"/>
       <use xlink:href="#DejaVuSans-2e" x="63.623047"/>
       <use xlink:href="#DejaVuSans-30" x="95.410156"/>
       <use xlink:href="#DejaVuSans-30" x="159.033203"/>
      </g>
     </g>
    </g>
    <g id="ytick_16">
     <g id="line2d_78">
      <path d="M 381.846515 116.902813
L 508.19976 116.902813
" clip-path="url(#pf51a479068)" style="fill: none; stroke: #d9d9d9; stroke-opacity: 0.7; stroke-width: 0.45; stroke-linecap: square"/>
     </g>
     <g id="line2d_79">
      <g>
       <use xlink:href="#mbb61af0f07" x="381.846515" y="116.902813" style="stroke: #000000; stroke-width: 0.8"/>
      </g>
     </g>
     <g id="text_38">
      <!-- 0.02 -->
      <g transform="translate(359.260578 119.562266) scale(0.07 -0.07)">
       <use xlink:href="#DejaVuSans-30"/>
       <use xlink:href="#DejaVuSans-2e" x="63.623047"/>
       <use xlink:href="#DejaVuSans-30" x="95.410156"/>
       <use xlink:href="#DejaVuSans-32" x="159.033203"/>
      </g>
     </g>
    </g>
    <g id="ytick_17">
     <g id="line2d_80">
      <path d="M 381.846515 93.123053
L 508.19976 93.123053
" clip-path="url(#pf51a479068)" style="fill: none; stroke: #d9d9d9; stroke-opacity: 0.7; stroke-width: 0.45; stroke-linecap: square"/>
     </g>
     <g id="line2d_81">
      <g>
       <use xlink:href="#mbb61af0f07" x="381.846515" y="93.123053" style="stroke: #000000; stroke-width: 0.8"/>
      </g>
     </g>
     <g id="text_39">
      <!-- 0.04 -->
      <g transform="translate(359.260578 95.782506) scale(0.07 -0.07)">
       <use xlink:href="#DejaVuSans-30"/>
       <use xlink:href="#DejaVuSans-2e" x="63.623047"/>
       <use xlink:href="#DejaVuSans-30" x="95.410156"/>
       <use xlink:href="#DejaVuSans-34" x="159.033203"/>
      </g>
     </g>
    </g>
    <g id="ytick_18">
     <g id="line2d_82">
      <path d="M 381.846515 69.343293
L 508.19976 69.343293
" clip-path="url(#pf51a479068)" style="fill: none; stroke: #d9d9d9; stroke-opacity: 0.7; stroke-width: 0.45; stroke-linecap: square"/>
     </g>
     <g id="line2d_83">
      <g>
       <use xlink:href="#mbb61af0f07" x="381.846515" y="69.343293" style="stroke: #000000; stroke-width: 0.8"/>
      </g>
     </g>
     <g id="text_40">
      <!-- 0.06 -->
      <g transform="translate(359.260578 72.002746) scale(0.07 -0.07)">
       <use xlink:href="#DejaVuSans-30"/>
       <use xlink:href="#DejaVuSans-2e" x="63.623047"/>
       <use xlink:href="#DejaVuSans-30" x="95.410156"/>
       <use xlink:href="#DejaVuSans-36" x="159.033203"/>
      </g>
     </g>
    </g>
    <g id="ytick_19">
     <g id="line2d_84">
      <path d="M 381.846515 45.563533
L 508.19976 45.563533
" clip-path="url(#pf51a479068)" style="fill: none; stroke: #d9d9d9; stroke-opacity: 0.7; stroke-width: 0.45; stroke-linecap: square"/>
     </g>
     <g id="line2d_85">
      <g>
       <use xlink:href="#mbb61af0f07" x="381.846515" y="45.563533" style="stroke: #000000; stroke-width: 0.8"/>
      </g>
     </g>
     <g id="text_41">
      <!-- 0.08 -->
      <g transform="translate(359.260578 48.222987) scale(0.07 -0.07)">
       <use xlink:href="#DejaVuSans-30"/>
       <use xlink:href="#DejaVuSans-2e" x="63.623047"/>
       <use xlink:href="#DejaVuSans-30" x="95.410156"/>
       <use xlink:href="#DejaVuSans-38" x="159.033203"/>
      </g>
     </g>
    </g>
    <g id="ytick_20">
     <g id="line2d_86">
      <path d="M 381.846515 21.783774
L 508.19976 21.783774
" clip-path="url(#pf51a479068)" style="fill: none; stroke: #d9d9d9; stroke-opacity: 0.7; stroke-width: 0.45; stroke-linecap: square"/>
     </g>
     <g id="line2d_87">
      <g>
       <use xlink:href="#mbb61af0f07" x="381.846515" y="21.783774" style="stroke: #000000; stroke-width: 0.8"/>
      </g>
     </g>
     <g id="text_42">
      <!-- 0.10 -->
      <g transform="translate(359.260578 24.443227) scale(0.07 -0.07)">
       <use xlink:href="#DejaVuSans-30"/>
       <use xlink:href="#DejaVuSans-2e" x="63.623047"/>
       <use xlink:href="#DejaVuSans-31" x="95.410156"/>
       <use xlink:href="#DejaVuSans-30" x="159.033203"/>
      </g>
     </g>
    </g>
    <g id="text_43">
     <!-- Simultaneous 95% upper bound -->
     <g transform="translate(353.596828 142.555703) rotate(-90) scale(0.08 -0.08)">
      <defs>
       <path id="DejaVuSans-53" d="M 3425 4513
L 3425 3897
Q 3066 4069 2747 4153
Q 2428 4238 2131 4238
Q 1616 4238 1336 4038
Q 1056 3838 1056 3469
Q 1056 3159 1242 3001
Q 1428 2844 1947 2747
L 2328 2669
Q 3034 2534 3370 2195
Q 3706 1856 3706 1288
Q 3706 609 3251 259
Q 2797 -91 1919 -91
Q 1588 -91 1214 -16
Q 841 59 441 206
L 441 856
Q 825 641 1194 531
Q 1563 422 1919 422
Q 2459 422 2753 634
Q 3047 847 3047 1241
Q 3047 1584 2836 1778
Q 2625 1972 2144 2069
L 1759 2144
Q 1053 2284 737 2584
Q 422 2884 422 3419
Q 422 4038 858 4394
Q 1294 4750 2059 4750
Q 2388 4750 2728 4690
Q 3069 4631 3425 4513
z
" transform="scale(0.015625)"/>
       <path id="DejaVuSans-39" d="M 703 97
L 703 672
Q 941 559 1184 500
Q 1428 441 1663 441
Q 2288 441 2617 861
Q 2947 1281 2994 2138
Q 2813 1869 2534 1725
Q 2256 1581 1919 1581
Q 1219 1581 811 2004
Q 403 2428 403 3163
Q 403 3881 828 4315
Q 1253 4750 1959 4750
Q 2769 4750 3195 4129
Q 3622 3509 3622 2328
Q 3622 1225 3098 567
Q 2575 -91 1691 -91
Q 1453 -91 1209 -44
Q 966 3 703 97
z
M 1959 2075
Q 2384 2075 2632 2365
Q 2881 2656 2881 3163
Q 2881 3666 2632 3958
Q 2384 4250 1959 4250
Q 1534 4250 1286 3958
Q 1038 3666 1038 3163
Q 1038 2656 1286 2365
Q 1534 2075 1959 2075
z
" transform="scale(0.015625)"/>
       <path id="DejaVuSans-25" d="M 4653 2053
Q 4381 2053 4226 1822
Q 4072 1591 4072 1178
Q 4072 772 4226 539
Q 4381 306 4653 306
Q 4919 306 5073 539
Q 5228 772 5228 1178
Q 5228 1588 5073 1820
Q 4919 2053 4653 2053
z
M 4653 2450
Q 5147 2450 5437 2106
Q 5728 1763 5728 1178
Q 5728 594 5436 251
Q 5144 -91 4653 -91
Q 4153 -91 3862 251
Q 3572 594 3572 1178
Q 3572 1766 3864 2108
Q 4156 2450 4653 2450
z
M 1428 4353
Q 1159 4353 1004 4120
Q 850 3888 850 3481
Q 850 3069 1003 2837
Q 1156 2606 1428 2606
Q 1700 2606 1854 2837
Q 2009 3069 2009 3481
Q 2009 3884 1853 4118
Q 1697 4353 1428 4353
z
M 4250 4750
L 4750 4750
L 1831 -91
L 1331 -91
L 4250 4750
z
M 1428 4750
Q 1922 4750 2215 4408
Q 2509 4066 2509 3481
Q 2509 2891 2217 2550
Q 1925 2209 1428 2209
Q 931 2209 642 2551
Q 353 2894 353 3481
Q 353 4063 643 4406
Q 934 4750 1428 4750
z
" transform="scale(0.015625)"/>
      </defs>
      <use xlink:href="#DejaVuSans-53"/>
      <use xlink:href="#DejaVuSans-69" x="63.476562"/>
      <use xlink:href="#DejaVuSans-6d" x="91.259766"/>
      <use xlink:href="#DejaVuSans-75" x="188.671875"/>
      <use xlink:href="#DejaVuSans-6c" x="252.050781"/>
      <use xlink:href="#DejaVuSans-74" x="279.833984"/>
      <use xlink:href="#DejaVuSans-61" x="319.042969"/>
      <use xlink:href="#DejaVuSans-6e" x="380.322266"/>
      <use xlink:href="#DejaVuSans-65" x="443.701172"/>
      <use xlink:href="#DejaVuSans-6f" x="505.224609"/>
      <use xlink:href="#DejaVuSans-75" x="566.40625"/>
      <use xlink:href="#DejaVuSans-73" x="629.785156"/>
      <use xlink:href="#DejaVuSans-20" x="681.884766"/>
      <use xlink:href="#DejaVuSans-39" x="713.671875"/>
      <use xlink:href="#DejaVuSans-35" x="777.294922"/>
      <use xlink:href="#DejaVuSans-25" x="840.917969"/>
      <use xlink:href="#DejaVuSans-20" x="935.9375"/>
      <use xlink:href="#DejaVuSans-75" x="967.724609"/>
      <use xlink:href="#DejaVuSans-70" x="1031.103516"/>
      <use xlink:href="#DejaVuSans-70" x="1094.580078"/>
      <use xlink:href="#DejaVuSans-65" x="1158.056641"/>
      <use xlink:href="#DejaVuSans-72" x="1219.580078"/>
      <use xlink:href="#DejaVuSans-20" x="1260.693359"/>
      <use xlink:href="#DejaVuSans-62" x="1292.480469"/>
      <use xlink:href="#DejaVuSans-6f" x="1355.957031"/>
      <use xlink:href="#DejaVuSans-75" x="1417.138672"/>
      <use xlink:href="#DejaVuSans-6e" x="1480.517578"/>
      <use xlink:href="#DejaVuSans-64" x="1543.896484"/>
     </g>
    </g>
   </g>
   <g id="line2d_88">
    <path d="M 387.589845 134.737633
L 388.808127 133.476585
L 390.026409 132.215537
L 391.24469 130.954489
L 392.462972 129.693441
L 393.681254 128.432393
L 394.899536 127.171345
L 396.117818 125.910297
L 397.3361 124.64925
L 398.554382 123.388202
L 399.772664 122.127154
L 400.990946 120.866106
L 402.209228 119.605058
L 403.42751 118.34401
L 404.645792 117.082962
L 405.864074 115.821915
L 407.082356 114.560867
L 408.300638 113.299819
L 409.51892 112.038771
L 410.737202 110.777723
L 411.955484 109.516675
L 413.173766 108.255627
L 414.392048 106.99458
L 415.61033 105.733532
L 416.828612 104.472484
L 418.046894 103.211436
L 419.265176 101.950388
L 420.483458 100.68934
L 421.70174 99.428292
L 422.920022 98.167244
L 424.138304 96.906197
L 425.356586 95.645149
L 426.574868 94.384101
L 427.79315 93.123053
L 429.011432 91.862005
L 430.229714 90.600957
L 431.447996 89.339909
L 432.666278 88.078862
L 433.88456 86.817814
L 435.102842 85.556766
L 436.321124 84.295718
L 437.539406 83.03467
L 438.757687 81.773622
L 439.975969 80.512574
L 441.194251 79.251526
L 442.412533 77.990479
L 443.630815 76.729431
L 444.849097 75.468383
L 446.067379 74.207335
L 447.285661 72.946287
L 448.503943 71.685239
L 449.722225 70.424191
L 450.940507 69.163144
L 452.158789 67.902096
L 453.377071 66.641048
L 454.595353 65.38
L 455.813635 64.118952
L 457.031917 62.857904
L 458.250199 61.596856
L 459.468481 60.335808
L 460.686763 59.074761
L 461.905045 57.813713
L 463.123327 56.552665
L 464.341609 55.291617
L 465.559891 54.030569
L 466.778173 52.769521
L 467.996455 51.508473
L 469.214737 50.247426
L 470.433019 48.986378
L 471.651301 47.72533
L 472.869583 46.464282
L 474.087865 45.203234
L 475.306147 43.942186
L 476.524429 42.681138
L 477.742711 41.42009
L 478.960993 40.159043
L 480.179275 38.897995
L 481.397557 37.636947
L 482.615839 36.375899
L 483.834121 35.114851
L 485.052402 33.853803
L 486.270684 32.592755
L 487.488966 31.331708
L 488.707248 30.07066
L 489.92553 28.809612
L 491.143812 27.548564
L 492.362094 26.287516
L 493.580376 25.026468
L 494.798658 23.76542
L 496.01694 22.504372
L 497.235222 21.243325
L 498.453504 19.982277
L 499.671786 18.721229
L 500.890068 17.460181
L 502.10835 16.199133
L 503.326632 14.938085
L 504.544914 13.677037
L 505.763196 12.41599
L 506.981478 11.154942
L 508.19976 9.893894
" clip-path="url(#pf51a479068)" style="fill: none; stroke-dasharray: 5.18,2.24; stroke-dashoffset: 0; stroke: #d55e00; stroke-width: 1.4"/>
   </g>
   <g id="patch_9">
    <path d="M 381.846515 140.682573
L 381.846515 15.838834
" style="fill: none; stroke: #000000; stroke-width: 0.7; stroke-linejoin: miter; stroke-linecap: square"/>
   </g>
   <g id="patch_10">
    <path d="M 381.846515 140.682573
L 508.19976 140.682573
" style="fill: none; stroke: #000000; stroke-width: 0.7; stroke-linejoin: miter; stroke-linecap: square"/>
   </g>
   <g id="text_44">
    <!-- C -->
    <g transform="translate(361.629996 13.449772) scale(0.1 -0.1)">
     <defs>
      <path id="DejaVuSans-Bold-43" d="M 4288 256
Q 3956 84 3597 -3
Q 3238 -91 2847 -91
Q 1681 -91 1000 561
Q 319 1213 319 2328
Q 319 3447 1000 4098
Q 1681 4750 2847 4750
Q 3238 4750 3597 4662
Q 3956 4575 4288 4403
L 4288 3438
Q 3953 3666 3628 3772
Q 3303 3878 2944 3878
Q 2300 3878 1931 3465
Q 1563 3053 1563 2328
Q 1563 1606 1931 1193
Q 2300 781 2944 781
Q 3303 781 3628 887
Q 3953 994 4288 1222
L 4288 256
z
" transform="scale(0.015625)"/>
     </defs>
     <use xlink:href="#DejaVuSans-Bold-43"/>
    </g>
   </g>
   <g id="text_45">
    <!-- False-acceptance control -->
    <g transform="translate(389.126106 9.838834) scale(0.09 -0.09)">
     <defs>
      <path id="DejaVuSans-46" d="M 628 4666
L 3309 4666
L 3309 4134
L 1259 4134
L 1259 2759
L 3109 2759
L 3109 2228
L 1259 2228
L 1259 0
L 628 0
L 628 4666
z
" transform="scale(0.015625)"/>
      <path id="DejaVuSans-2d" d="M 313 2009
L 1997 2009
L 1997 1497
L 313 1497
L 313 2009
z
" transform="scale(0.015625)"/>
     </defs>
     <use xlink:href="#DejaVuSans-46"/>
     <use xlink:href="#DejaVuSans-61" x="48.394531"/>
     <use xlink:href="#DejaVuSans-6c" x="109.673828"/>
     <use xlink:href="#DejaVuSans-73" x="137.457031"/>
     <use xlink:href="#DejaVuSans-65" x="189.556641"/>
     <use xlink:href="#DejaVuSans-2d" x="251.080078"/>
     <use xlink:href="#DejaVuSans-61" x="287.164062"/>
     <use xlink:href="#DejaVuSans-63" x="348.443359"/>
     <use xlink:href="#DejaVuSans-63" x="403.423828"/>
     <use xlink:href="#DejaVuSans-65" x="458.404297"/>
     <use xlink:href="#DejaVuSans-70" x="519.927734"/>
     <use xlink:href="#DejaVuSans-74" x="583.404297"/>
     <use xlink:href="#DejaVuSans-61" x="622.613281"/>
     <use xlink:href="#DejaVuSans-6e" x="683.892578"/>
     <use xlink:href="#DejaVuSans-63" x="747.271484"/>
     <use xlink:href="#DejaVuSans-65" x="802.251953"/>
     <use xlink:href="#DejaVuSans-20" x="863.775391"/>
     <use xlink:href="#DejaVuSans-63" x="895.5625"/>
     <use xlink:href="#DejaVuSans-6f" x="950.542969"/>
     <use xlink:href="#DejaVuSans-6e" x="1011.724609"/>
     <use xlink:href="#DejaVuSans-74" x="1075.103516"/>
     <use xlink:href="#DejaVuSans-72" x="1114.3125"/>
     <use xlink:href="#DejaVuSans-6f" x="1153.175781"/>
     <use xlink:href="#DejaVuSans-6c" x="1214.357422"/>
    </g>
   </g>
   <g id="legend_2">
    <g id="line2d_89">
     <path d="M 388.146515 25.008834
L 395.146515 25.008834
L 402.146515 25.008834
" style="fill: none; stroke-dasharray: 5.18,2.24; stroke-dashoffset: 0; stroke: #d55e00; stroke-width: 1.4"/>
    </g>
    <g id="text_46">
     <!-- Upper bound = $\delta$ -->
     <g transform="translate(407.746515 27.458834) scale(0.07 -0.07)">
      <defs>
       <path id="DejaVuSans-55" d="M 556 4666
L 1191 4666
L 1191 1831
Q 1191 1081 1462 751
Q 1734 422 2344 422
Q 2950 422 3222 751
Q 3494 1081 3494 1831
L 3494 4666
L 4128 4666
L 4128 1753
Q 4128 841 3676 375
Q 3225 -91 2344 -91
Q 1459 -91 1007 375
Q 556 841 556 1753
L 556 4666
z
" transform="scale(0.015625)"/>
      </defs>
      <use xlink:href="#DejaVuSans-55" transform="translate(0 0.015625)"/>
      <use xlink:href="#DejaVuSans-70" transform="translate(73.193359 0.015625)"/>
      <use xlink:href="#DejaVuSans-70" transform="translate(136.669922 0.015625)"/>
      <use xlink:href="#DejaVuSans-65" transform="translate(200.146484 0.015625)"/>
      <use xlink:href="#DejaVuSans-72" transform="translate(261.669922 0.015625)"/>
      <use xlink:href="#DejaVuSans-20" transform="translate(302.783203 0.015625)"/>
      <use xlink:href="#DejaVuSans-62" transform="translate(334.570312 0.015625)"/>
      <use xlink:href="#DejaVuSans-6f" transform="translate(398.046875 0.015625)"/>
      <use xlink:href="#DejaVuSans-75" transform="translate(459.228516 0.015625)"/>
      <use xlink:href="#DejaVuSans-6e" transform="translate(522.607422 0.015625)"/>
      <use xlink:href="#DejaVuSans-64" transform="translate(585.986328 0.015625)"/>
      <use xlink:href="#DejaVuSans-20" transform="translate(649.462891 0.015625)"/>
      <use xlink:href="#DejaVuSans-3d" transform="translate(681.25 0.015625)"/>
      <use xlink:href="#DejaVuSans-20" transform="translate(765.039062 0.015625)"/>
      <use xlink:href="#DejaVuSans-Oblique-3b4" transform="translate(796.826172 0.015625)"/>
     </g>
    </g>
   </g>
  </g>
 </g>
 <defs>
  <clipPath id="pff8899fef0">
   <rect x="32.874928" y="15.838834" width="126.353245" height="124.843739"/>
  </clipPath>
  <clipPath id="pf61c28da5b">
   <rect x="214.747362" y="15.838834" width="126.353245" height="124.843739"/>
  </clipPath>
  <clipPath id="pf51a479068">
   <rect x="381.846515" y="15.838834" width="126.353245" height="124.843739"/>
  </clipPath>
 </defs>
</svg>
